<svg width="40" height="40" viewBox="0 0 40 40" fill="none" xmlns="http://www.w3.org/2000/svg">
<rect x="0.837227" y="0.837227" width="38.0179" height="38.0179" rx="19.0089" stroke="#1972AE" stroke-width="1.67445"/>
<path d="M21.2599 31.2214C17.9996 31.2214 14.7397 31.2266 11.4794 31.2177C10.7705 31.2177 10.2326 30.9023 9.96528 30.2154C9.91758 30.0837 9.89428 29.9444 9.89653 29.8043C9.89162 28.0456 9.89162 26.2868 9.89653 24.528C9.89567 24.3152 9.85086 24.1049 9.76489 23.9103C9.51045 23.3014 9.28138 22.6822 9.03981 22.0682C8.72728 21.2773 8.40739 20.4901 8.10221 19.6962C7.78379 18.8693 7.46464 18.0416 7.17343 17.2059C7.03481 16.8084 7.1852 16.4426 7.40985 16.1006C7.64959 15.7355 8.00477 15.5579 8.39452 15.4068C9.12989 15.1215 9.85571 14.8141 10.5867 14.5181C11.4018 14.1872 12.2192 13.8618 13.034 13.5305C13.5833 13.3069 14.129 13.0742 14.6783 12.8506C15.6582 12.4513 16.6399 12.0568 17.6198 11.6582C18.3835 11.3475 19.145 11.0331 19.909 10.7221C20.9682 10.2919 22.0283 9.86292 23.0892 9.43518C23.8142 9.14323 24.5426 8.85938 25.2648 8.56045C25.9329 8.28395 26.8944 8.66083 27.1595 9.40098C27.5779 10.5688 28.0074 11.7329 28.4353 12.8977C28.7196 13.6717 29.0093 14.4438 29.2968 15.2167C29.4332 15.5844 29.573 15.9488 29.7064 16.3165C29.7594 16.4635 29.8469 16.5238 30.009 16.5198C30.401 16.5095 30.7941 16.5334 31.1856 16.515C31.8791 16.4826 32.574 17.2044 32.5718 17.8971C32.5591 21.862 32.5591 25.8268 32.5718 29.7915C32.5718 30.3459 32.0232 31.0887 31.4548 31.1615C31.2801 31.1839 31.1051 31.2188 30.9305 31.2188C27.7071 31.2225 24.4837 31.2234 21.2603 31.2214H21.2599ZM31.6886 23.8342C31.6886 21.9286 31.6886 20.023 31.6886 18.1174C31.6886 17.6394 31.4596 17.407 30.9853 17.407C26.8672 17.407 22.749 17.407 18.6309 17.407C16.2108 17.4085 13.7906 17.415 11.3702 17.4265C10.9875 17.4265 10.7963 17.6206 10.7926 18.003C10.7893 18.3516 10.7926 18.7016 10.7907 19.0491C10.7834 20.3834 10.7716 21.7182 10.7687 23.0529C10.7687 23.622 10.7896 24.1927 10.7915 24.7611C10.7952 26.0161 10.7915 27.271 10.7915 28.5259C10.7915 28.9237 10.7852 29.3219 10.7948 29.7194C10.8043 30.1169 11.1014 30.3717 11.4974 30.3397C11.5949 30.332 11.6927 30.3209 11.7916 30.3209C13.5991 30.3195 15.4064 30.3195 17.2135 30.3209C19.3946 30.3254 21.5758 30.3397 23.7584 30.3426C24.7996 30.3426 25.8409 30.3276 26.8837 30.3231C27.165 30.3231 27.4466 30.3408 27.7294 30.3423C28.4089 30.3452 29.0898 30.3423 29.7678 30.3423C30.1723 30.3423 30.5768 30.3504 30.9812 30.3401C31.439 30.3287 31.6765 30.0827 31.6905 29.6264C31.6905 29.5712 31.6905 29.5161 31.6905 29.4609L31.6886 23.8342ZM12.4913 16.5213C12.8649 16.5213 13.2392 16.5338 13.612 16.5157C13.8049 16.5038 13.9951 16.4648 14.1771 16.3999C14.4595 16.3032 14.7324 16.1793 15.0089 16.0639L18.6725 14.5589C19.577 14.1883 20.4819 13.8183 21.3871 13.4489C22.3446 13.0606 23.3028 12.6743 24.2617 12.2899C25.067 11.9649 25.8703 11.6362 26.6778 11.3163C26.8271 11.2571 26.8359 11.1692 26.7881 11.0438C26.6171 10.5993 26.4572 10.1492 26.2733 9.71131C26.227 9.601 26.1049 9.5043 25.9939 9.44988C25.7873 9.3484 25.5847 9.45871 25.3946 9.53445C24.2768 9.97935 23.1606 10.4284 22.046 10.8817C20.7437 11.41 19.4432 11.9435 18.1405 12.4715C17.258 12.8297 16.3686 13.1775 15.4854 13.5378C14.3378 14.0063 13.1951 14.4865 12.0471 14.9549C11.2783 15.2685 10.5028 15.5704 9.7329 15.8789C9.30749 16.0491 8.88354 16.2227 8.45886 16.3937C8.13089 16.5257 7.99484 16.7687 8.10589 17.1121C8.25774 17.5824 8.44269 18.0416 8.60631 18.5093C8.65705 18.6535 8.74125 18.6623 8.86369 18.6119C9.15122 18.4924 9.43728 18.3696 9.72812 18.2589C9.85167 18.2119 9.88292 18.135 9.89469 18.0108C9.91454 17.8015 9.92337 17.5773 10.0076 17.3912C10.2171 16.929 10.6874 16.5088 11.3007 16.5202C11.6949 16.5279 12.0931 16.5213 12.4913 16.5213ZM22.948 16.4084C22.952 16.4337 22.9564 16.4591 22.9605 16.4845C23.0204 16.5028 23.082 16.5151 23.1443 16.5213C24.932 16.5213 26.7196 16.5205 28.507 16.519C28.7824 16.519 28.8089 16.4657 28.7096 16.201C28.4975 15.6351 28.2916 15.0667 28.0868 14.4982C28.0412 14.3718 27.9717 14.3144 27.8375 14.3681C27.786 14.3883 27.7331 14.4048 27.6823 14.4251C26.9734 14.7233 26.2663 15.0251 25.556 15.3193C24.8456 15.6134 24.1419 15.894 23.4363 16.1841C23.2686 16.251 23.1101 16.333 22.948 16.4084Z" fill="#1972AE"/>
<path d="M29.9603 22.346C29.9603 22.6522 29.9603 22.9586 29.9603 23.2653C29.9603 23.4752 29.8978 23.5384 29.6853 23.5392C29.2382 23.5414 28.7911 23.5465 28.344 23.5392C28.1771 23.5366 28.1146 23.5965 28.1171 23.7635C28.1241 24.2415 28.1226 24.7195 28.1208 25.1975C28.1208 25.4258 28.0741 25.4692 27.8542 25.4703C27.3152 25.4725 26.7765 25.4769 26.2364 25.4773C25.8794 25.4773 25.8592 25.4427 25.8687 25.0864C25.8801 24.6452 25.8687 24.204 25.8764 23.7627C25.879 23.6054 25.822 23.5421 25.6628 23.5447C25.1973 23.5487 24.7315 23.5447 24.2656 23.541C24.0082 23.541 23.9402 23.4704 23.9398 23.2153C23.9398 22.6216 23.9387 22.0279 23.9365 21.4342C23.9365 21.2136 23.9873 21.1672 24.209 21.1676C24.687 21.1676 25.165 21.1632 25.643 21.1676C25.8106 21.1698 25.8779 21.0966 25.8753 20.9374C25.8669 20.4664 25.8632 19.995 25.8503 19.524C25.8445 19.3034 25.9147 19.2159 26.1305 19.2152C26.6879 19.2152 27.2453 19.2122 27.8028 19.2152C28.0366 19.2152 28.1215 19.3031 28.1215 19.538C28.1215 19.9792 28.1182 20.4205 28.1179 20.8617C28.1179 21.1577 28.1256 21.1658 28.43 21.1658C28.8588 21.1658 29.2875 21.1636 29.7169 21.1658C29.932 21.1658 29.9592 21.1941 29.9603 21.411C29.9603 21.7235 29.9603 22.0361 29.9603 22.3482V22.346Z" fill="#1972AE"/>
<path d="M15.2706 25.2007C14.8481 25.2007 14.4249 25.2136 14.0039 25.1978C13.4002 25.1746 12.9744 24.8584 12.7442 24.3153C12.3817 23.4535 12.7031 22.6589 13.4318 22.2563C13.6807 22.1188 13.9539 22.0879 14.229 22.0857C14.9092 22.0802 15.5894 22.0765 16.2689 22.089C16.7384 22.0978 17.1789 22.2144 17.522 22.5633C18.2941 23.3501 18.047 24.6959 16.9991 25.1106C16.8153 25.1823 16.6075 25.2062 16.4108 25.2143C16.0317 25.2301 15.6515 25.2191 15.271 25.2191L15.2706 25.2007Z" fill="#1972AE"/>
<path d="M21.2627 28.0676C23.9397 28.0676 26.6166 28.0676 29.2933 28.0676C29.4871 28.0676 29.654 28.089 29.7529 28.2915C29.8956 28.5857 29.7298 28.9012 29.4014 28.9122C28.9234 28.9284 28.4455 28.9306 27.9675 28.9317C26.8889 28.9337 25.8111 28.9337 24.734 28.9317C23.6986 28.9295 22.6636 28.9225 21.6285 28.9218C18.8052 28.9196 15.9816 28.9186 13.1577 28.9188C12.8794 28.9188 12.7062 28.7905 12.6764 28.5691C12.6375 28.2787 12.8169 28.0739 13.121 28.0728C13.899 28.0698 14.6769 28.0689 15.4547 28.0698H21.2616L21.2627 28.0676Z" fill="#1972AE"/>
<path d="M16.5653 19.3503C17.7227 19.3503 18.8817 19.3591 20.037 19.3455C20.3958 19.3411 20.5223 19.5783 20.5311 19.7867C20.5429 20.0717 20.3319 20.2607 20.019 20.2592C18.2688 20.2511 16.5187 20.2433 14.7687 20.2357C14.1937 20.2331 13.619 20.2357 13.0443 20.2316C12.7825 20.2316 12.6078 20.0478 12.6119 19.7934C12.6159 19.5183 12.7858 19.3485 13.0572 19.3485L16.5653 19.3503Z" fill="#1972AE"/>
</svg>
