<svg width="43" height="44" viewBox="0 0 43 44" fill="none" xmlns="http://www.w3.org/2000/svg">
<path d="M14.4003 29.8053C14.4003 29.8053 16.4096 32.317 21.2655 32.317C26.1215 32.317 28.6331 29.9727 28.6331 29.9727" stroke="#498CC1" stroke-width="2.00935" stroke-linecap="round"/>
<path d="M13.3956 1.00464H6.69782C3.73853 1.00464 1.33956 3.40361 1.33956 6.36289V13.8979" stroke="#498CC1" stroke-width="2.00935" stroke-linecap="round"/>
<path d="M29.6378 1.00464H36.3356C39.2949 1.00464 41.6939 3.40361 41.6939 6.36289V13.8979" stroke="#498CC1" stroke-width="2.00935" stroke-linecap="round"/>
<path d="M13.0608 42.0288H6.36298C3.40369 42.0288 1.00472 39.6298 1.00472 36.6706V29.1355" stroke="#498CC1" stroke-width="2.00935" stroke-linecap="round"/>
<path d="M29.303 42.0288H36.0008C38.9601 42.0288 41.3591 39.6298 41.3591 36.6706V29.1355" stroke="#498CC1" stroke-width="2.00935" stroke-linecap="round"/>
<path d="M22.6051 15.0701C22.6051 17.3027 22.6051 23.1075 22.6051 23.1075C22.6051 23.1075 22.6051 24.7819 19.7585 24.7819" stroke="#498CC1" stroke-width="2.00935" stroke-linecap="round"/>
<rect x="29.6378" y="14.5678" width="1.00467" height="5.02336" rx="0.502336" fill="#4380B6" stroke="#498CC1" stroke-width="1.00467"/>
<rect x="12.5584" y="14.5678" width="1.00467" height="5.02336" rx="0.502336" fill="#4380B6" stroke="#498CC1" stroke-width="1.00467"/>
</svg>
