<svg width="24" height="25" viewBox="0 0 24 25" fill="none" xmlns="http://www.w3.org/2000/svg">
<path d="M2.10984 7.74336C1.85646 7.74336 1.60307 7.75488 1.35014 7.73645C1.27367 7.73092 1.16126 7.65675 1.1373 7.58903C0.967299 7.10345 0.650334 6.80077 0.136189 6.71369C0.0104173 6.6925 -0.017224 6.61602 0.00903614 6.49394C0.253778 5.36021 0.712375 4.28353 1.36028 3.32153C1.47776 3.14462 1.55884 3.14831 1.73898 3.26118C2.30196 3.61408 2.88383 3.93749 3.46431 4.26183C3.56935 4.32034 3.62003 4.36226 3.57995 4.48711C3.27378 5.45349 3.10065 6.45706 3.06534 7.47017C3.05705 7.6738 2.99255 7.76225 2.7774 7.74659C2.56225 7.73092 2.33098 7.74336 2.10984 7.74336Z" fill="#2681C2"/>
<path d="M2.11343 8.39764C2.35115 8.39764 2.58934 8.4064 2.82706 8.39764C2.99752 8.38981 3.05741 8.46214 3.06571 8.62431C3.10348 9.54802 3.27394 10.4496 3.52871 11.3369C3.62776 11.6811 3.61302 11.6636 3.30066 11.8377C2.74782 12.1468 2.20189 12.4749 1.66286 12.8103C1.53479 12.89 1.46891 12.8923 1.38368 12.7706C0.811022 11.9529 0.379343 11.0711 0.145306 10.0986C0.0992355 9.91428 0.0573123 9.72631 0.0121633 9.54065C-0.0177824 9.4181 0.0227589 9.35637 0.154059 9.33794C0.636416 9.27114 0.963515 9.01222 1.13858 8.55106C1.16438 8.48379 1.27679 8.41285 1.35465 8.40778C1.6062 8.38474 1.8605 8.39764 2.11343 8.39764Z" fill="#2681C2"/>
<path d="M4.86063 7.75258C4.56117 7.75258 4.26172 7.74474 3.96272 7.75534C3.77844 7.76179 3.69183 7.70282 3.70749 7.5061C3.78258 6.56396 3.89822 5.62919 4.17556 4.72161C4.21242 4.60044 4.27968 4.56359 4.39993 4.60367C5.38998 4.93169 6.41136 5.07589 7.44886 5.12196C7.61932 5.12979 7.64789 5.1989 7.67138 5.35922C7.76352 5.98301 7.57325 6.42391 7.00751 6.75976C6.65415 6.96938 6.39109 7.32919 6.07689 7.60976C5.99431 7.68278 5.89082 7.72792 5.78112 7.73876C5.47475 7.75534 5.16746 7.74474 4.85971 7.74474L4.86063 7.75258Z" fill="#2681C2"/>
<path d="M7.65076 0.226605C7.6549 0.286496 7.66319 0.346387 7.66319 0.406279C7.66319 1.67137 7.66089 2.93692 7.67149 4.20247C7.67149 4.41947 7.60745 4.47521 7.39507 4.46738C6.46707 4.43331 5.54718 4.28128 4.65757 4.01497C4.48849 3.96429 4.45209 3.89703 4.51935 3.73855C5.03765 2.51446 5.72133 1.40969 6.80629 0.60346C7.04539 0.426089 7.32596 0.304923 7.58718 0.157959L7.65076 0.226605Z" fill="#2681C2"/>
<path d="M8.32021 0.14502C8.57222 0.273095 8.79059 0.359246 8.98224 0.48594C9.81427 1.03602 10.4026 1.80678 10.8877 2.66092C11.0803 2.99954 11.2332 3.36027 11.4115 3.70718C11.4926 3.86474 11.4797 3.94628 11.2894 4.00571C10.4141 4.27983 9.51389 4.41482 8.59894 4.45997C8.33495 4.47287 8.30962 4.44615 8.30962 4.18723C8.30962 2.9375 8.30839 1.68745 8.30593 0.437105C8.30547 0.363393 8.31238 0.290141 8.32021 0.14502Z" fill="#2681C2"/>
<path d="M9.57053 0C9.7608 0.0423847 9.95476 0.0727906 10.1409 0.128996C11.4925 0.526779 12.7191 1.26563 13.7026 2.27449C14.0288 2.60804 14.0403 2.61864 13.651 2.86051C13.2156 3.13094 12.7604 3.36958 12.3186 3.63034C12.1468 3.73216 12.0768 3.69116 12.0026 3.50734C11.5557 2.40165 10.96 1.39132 10.0943 0.558833C9.91606 0.386991 9.72579 0.227127 9.5415 0.0617341L9.57053 0Z" fill="#2681C2"/>
<path d="M6.33307 0.0962995C6.29186 0.14677 6.24706 0.194193 6.19901 0.238197C5.29372 0.953209 4.68191 1.89074 4.17698 2.91028C4.07194 3.12266 3.97289 3.33873 3.88213 3.55756C3.83145 3.68011 3.76189 3.70637 3.65178 3.64372C3.13978 3.35163 2.62794 3.05985 2.11625 2.76838C1.94994 2.67301 1.93888 2.58133 2.0817 2.43345C3.06162 1.41622 4.18988 0.636705 5.5554 0.229443C5.8005 0.156192 6.04651 0.0847816 6.29253 0.0124512C6.30543 0.0387113 6.31925 0.0672752 6.33307 0.0962995Z" fill="#2681C2"/>
<path d="M23.1583 22.533C23.1561 22.7573 23.1053 22.9597 22.9339 23.1243C22.6969 23.3508 22.4691 23.5886 22.2428 23.8269C21.8344 24.2576 21.1345 24.1991 20.7129 23.6604C20.6344 23.5596 20.7088 23.5143 20.7634 23.4591C21.1168 23.1027 21.4721 22.7482 21.8252 22.3915C22.0434 22.1714 22.2675 21.955 22.4721 21.724C22.5907 21.5915 22.6656 21.6062 22.7809 21.7293C22.9962 21.9573 23.1816 22.191 23.1583 22.533Z" fill="#2681C2"/>
<path d="M15.6246 5.46159C15.2049 5.33029 14.8552 5.18517 14.4913 5.1156C13.9066 5.00135 13.3137 4.92902 12.7231 4.85116C12.5029 4.82213 12.3048 4.59823 12.3545 4.38354C12.3661 4.33747 12.4241 4.28818 12.472 4.25961C13.0774 3.90165 13.686 3.54921 14.29 3.1894C14.3936 3.12767 14.454 3.13734 14.5111 3.24238C14.8253 3.81964 15.1459 4.39414 15.4541 4.9737C15.5265 5.11007 15.5587 5.26763 15.6246 5.46159Z" fill="#2681C2"/>
<path d="M3.8579 12.2957C3.89383 12.4279 3.95419 12.5417 3.95004 12.6518C3.91071 13.4189 3.9672 14.1879 4.1182 14.941C4.12588 14.9867 4.12789 15.0331 4.12418 15.0792C4.11577 15.1086 4.10337 15.1366 4.08733 15.1626C4.02583 15.1377 3.96584 15.1093 3.90765 15.0774C3.23917 14.6627 2.62045 14.1901 2.07958 13.6151C1.94828 13.4769 1.95611 13.3995 2.10584 13.2926C2.64964 12.8941 3.23753 12.5596 3.8579 12.2957Z" fill="#2681C2"/>
<path d="M5.38272 8.39042C5.13302 8.85988 4.88562 9.27267 4.69166 9.70849C4.50001 10.1346 4.36134 10.5838 4.17982 11.0786C4.14331 11.0079 4.11055 10.9353 4.08169 10.8612C3.84858 10.124 3.77164 9.36204 3.72557 8.59635C3.72188 8.53093 3.81771 8.40102 3.87207 8.39963C4.35811 8.38489 4.84876 8.39042 5.38272 8.39042Z" fill="#2681C2"/>
<path d="M8.31557 5.80492C8.31557 5.60497 8.30313 5.41654 8.32478 5.23226C8.33031 5.18619 8.44272 5.12722 8.50906 5.11801C9.266 5.01849 10.0257 4.93787 10.7813 4.82915C11.0429 4.79137 11.2945 4.68264 11.5543 4.62275C11.6087 4.61031 11.6801 4.67112 11.7432 4.69785C11.7054 4.74944 11.6723 4.84112 11.6289 4.84619C10.5172 4.96762 9.43629 5.28767 8.43765 5.7911C8.39772 5.80094 8.35669 5.80559 8.31557 5.80492Z" fill="#2681C2"/>
<path d="M12.9731 8.55298C14.064 8.74878 14.979 9.15189 15.7092 9.91758C15.7377 9.95497 15.7579 9.99806 15.7683 10.0439C15.7787 10.0898 15.7791 10.1374 15.7696 10.1834C15.5185 11.1162 15.1027 11.9967 14.5418 12.7832C14.4584 12.902 14.399 12.9103 14.2654 12.8292C13.6818 12.4683 13.0903 12.1199 12.4907 11.7839C12.3525 11.707 12.3299 11.6457 12.3599 11.5015C12.5199 10.7309 12.6721 9.95858 12.8164 9.1846C12.845 9.03533 12.8275 8.87731 12.8556 8.72759C12.8713 8.65756 12.9427 8.59859 12.9731 8.55298Z" fill="#2681C2"/>
<path d="M8.3436 15.7303C8.33669 15.6381 8.32886 15.5773 8.32886 15.5179C8.32886 14.2827 8.33393 13.0471 8.32886 11.8115C8.32886 11.618 8.39197 11.5581 8.58409 11.5641C9.50472 11.5906 10.4177 11.7403 11.2986 12.0092C11.4368 12.0511 11.4879 12.1078 11.4239 12.2575C10.9562 13.3484 10.3467 14.344 9.44929 15.1346C9.21157 15.3442 8.91487 15.4893 8.63845 15.6515C8.55921 15.698 8.45555 15.7017 8.3436 15.7303Z" fill="#2681C2"/>
<path d="M12.2747 8.72577C12.1066 9.56609 11.9366 10.406 11.7721 11.2467C11.7362 11.431 11.6436 11.466 11.4777 11.4052C10.5314 11.0569 9.53768 10.9694 8.54026 10.91C8.30484 10.8957 8.25785 10.8178 8.38731 10.6253C8.85159 9.92383 9.49955 9.36336 10.2605 9.00496C10.8203 8.74097 11.4017 8.56775 12.0232 8.53458C12.1665 8.52675 12.2277 8.56959 12.2111 8.71195L12.2747 8.72577Z" fill="#2681C2"/>
<path d="M9.48926 15.9596C9.52898 15.9135 9.57128 15.8696 9.61595 15.8283C10.7438 14.9599 11.4643 13.7989 11.9992 12.5062C12.0637 12.3505 12.1314 12.2952 12.2876 12.3864C12.802 12.6889 13.3179 12.9891 13.8351 13.2871C14.0046 13.3857 13.9848 13.4806 13.8586 13.6096C12.8939 14.5973 11.7794 15.3436 10.4494 15.7445C10.1937 15.8214 9.93522 15.8896 9.67676 15.9578C9.63346 15.9693 9.58647 15.9596 9.48926 15.9596Z" fill="#2681C2"/>
<path d="M7.64288 12.9917V13.7288H7.59082V12.9917H7.64288Z" fill="#2681C2"/>
<path d="M11.9937 5.50122C16.1051 5.50122 19.4379 8.83416 19.438 12.9456C19.438 14.4964 18.9632 15.936 18.1519 17.1282L21.854 20.9133C21.9338 20.9949 21.9324 21.1254 21.8511 21.2053L20.2085 22.8118C20.1269 22.8916 19.9964 22.8904 19.9165 22.8088L16.2437 19.0549C15.0383 19.895 13.5743 20.3899 11.9937 20.3899C7.88225 20.3899 4.54932 17.057 4.54932 12.9456C4.54936 8.83418 7.88228 5.50126 11.9937 5.50122ZM11.9937 7.98267C9.25276 7.98271 7.0308 10.2047 7.03076 12.9456C7.03076 15.6865 9.25273 17.9084 11.9937 17.9084C14.7346 17.9084 16.9565 15.6865 16.9565 12.9456C16.9565 10.2046 14.7346 7.98267 11.9937 7.98267Z" fill="#2681C2"/>
</svg>
