<svg width="20" height="21" viewBox="0 0 20 21" fill="none" xmlns="http://www.w3.org/2000/svg">
<path d="M16.5343 10.7028C16.5302 11.9615 16.1788 13.1086 15.5185 14.1662C15.4536 14.2707 15.4812 14.3281 15.5558 14.4046C16.4884 15.3372 17.4151 16.2698 18.3514 17.198C18.4809 17.3263 18.4846 17.4002 18.3555 17.5255C17.7713 18.0918 17.1921 18.6638 16.6179 19.2415C16.506 19.3535 16.4433 19.3479 16.3347 19.2374C15.4021 18.288 14.465 17.3465 13.5327 16.3982C13.4234 16.2862 13.341 16.2739 13.197 16.3508C11.9708 17.0088 10.6603 17.289 9.27624 17.1293C8.03965 16.9916 6.86777 16.5049 5.89753 15.7259C4.89376 14.9374 4.15644 13.8595 3.78532 12.6382C3.45592 11.5836 3.42197 10.5084 3.632 9.41578C3.78681 8.60888 4.06884 7.86464 4.52359 7.18793C5.12047 6.29858 5.8744 5.57076 6.82344 5.05856C8.21753 4.30575 9.68399 4.04834 11.2508 4.35685C13.0146 4.70454 14.399 5.62187 15.4122 7.09318C15.9165 7.82585 16.2612 8.63574 16.3903 9.52434C16.4478 9.91567 16.4873 10.31 16.5343 10.7028ZM15.9747 10.6827C16.012 9.74295 15.7244 8.73497 15.348 8.02841C14.3516 6.15533 12.7803 5.0996 10.6849 4.81235C9.53088 4.6485 8.35462 4.85349 7.32407 5.39804C5.43457 6.38289 4.31468 7.93477 4.06399 10.0787C3.91477 11.3519 4.15278 12.5524 4.803 13.6432C5.91021 15.5021 7.58036 16.4862 9.73547 16.6205C11.0333 16.7011 12.2286 16.3504 13.3167 15.6394C13.4331 15.5648 13.4906 15.5845 13.5801 15.6767C14.5016 16.6093 15.429 17.5367 16.3504 18.4701C16.4548 18.576 16.5194 18.5954 16.632 18.4764C16.9047 18.1877 17.1942 17.9146 17.474 17.6326C17.74 17.3644 17.7374 17.3636 17.474 17.0987C16.613 16.2377 15.7546 15.3738 14.8899 14.5165C14.7683 14.396 14.7567 14.3009 14.8578 14.1647C14.988 13.9909 15.1073 13.8093 15.2152 13.6208C15.733 12.6986 16.0053 11.7108 15.9755 10.6827H15.9747Z" fill="#808080"/>
<path d="M1.70842 6.27047C1.50325 6.27047 1.29807 6.2798 1.09326 6.26487C1.03134 6.2604 0.940314 6.20034 0.920916 6.1455C0.78326 5.7523 0.526602 5.50721 0.110278 5.4367C0.0084353 5.41954 -0.0139469 5.35762 0.00731693 5.25876C0.205494 4.34074 0.576838 3.46891 1.10147 2.68994C1.1966 2.54668 1.26226 2.54967 1.40812 2.64107C1.86399 2.92682 2.33515 3.1887 2.80519 3.45133C2.89025 3.49871 2.93128 3.53266 2.89883 3.63375C2.65091 4.41627 2.51072 5.2289 2.48213 6.04925C2.47542 6.21414 2.42319 6.28576 2.24897 6.27308C2.07476 6.2604 1.88749 6.27047 1.70842 6.27047Z" fill="#808080"/>
<path d="M1.71125 6.80003C1.90375 6.80003 2.09661 6.80712 2.28911 6.80003C2.42714 6.79369 2.47563 6.85226 2.48235 6.98358C2.51294 7.73154 2.65097 8.4616 2.85726 9.18009C2.93747 9.45876 2.92553 9.44459 2.6726 9.5856C2.22494 9.83592 1.78288 10.1015 1.34641 10.3731C1.2427 10.4376 1.18936 10.4395 1.12034 10.341C0.656641 9.67886 0.307093 8.96484 0.117584 8.17734C0.0802788 8.02812 0.0463318 7.87591 0.00977295 7.72557C-0.0144753 7.62634 0.0183526 7.57635 0.124672 7.56143C0.515255 7.50734 0.78012 7.29768 0.921879 6.92426C0.94277 6.86979 1.03379 6.81235 1.09684 6.80824C1.30052 6.78959 1.50645 6.80003 1.71125 6.80003Z" fill="#808080"/>
<path d="M3.93569 6.27795C3.69321 6.27795 3.45073 6.27161 3.20862 6.28019C3.0594 6.28541 2.98926 6.23766 3.00195 6.07837C3.06275 5.31548 3.15639 4.55856 3.38097 3.82365C3.41081 3.72554 3.46527 3.6957 3.56264 3.72815C4.36433 3.99377 5.19138 4.11053 6.03149 4.14783C6.16951 4.15418 6.19264 4.21013 6.21167 4.33996C6.28628 4.84506 6.13221 5.20207 5.6741 5.47403C5.38797 5.64377 5.17496 5.93512 4.92054 6.1623C4.85368 6.22143 4.76987 6.25799 4.68105 6.26676C4.43297 6.28019 4.18414 6.27161 3.93495 6.27161L3.93569 6.27795Z" fill="#808080"/>
<path d="M6.19516 0.183515C6.19852 0.232011 6.20524 0.280508 6.20524 0.329004C6.20524 1.3534 6.20337 2.37817 6.21195 3.40294C6.21195 3.57864 6.1601 3.62378 5.98812 3.61744C5.23669 3.58985 4.49181 3.46675 3.77146 3.2511C3.63455 3.21007 3.60508 3.1556 3.65954 3.02727C4.07922 2.03608 4.63283 1.14151 5.51136 0.488669C5.70498 0.345045 5.93216 0.246933 6.14368 0.12793L6.19516 0.183515Z" fill="#808080"/>
<path d="M6.73717 0.117676C6.94123 0.221384 7.11805 0.291144 7.27324 0.393733C7.94697 0.839154 8.42335 1.46327 8.81617 2.1549C8.97211 2.42909 9.09596 2.72119 9.24033 3.0021C9.30599 3.12968 9.29554 3.19571 9.14148 3.24383C8.43268 3.4658 7.70374 3.5751 6.96286 3.61166C6.74911 3.62211 6.72859 3.60047 6.72859 3.39082C6.72859 2.37886 6.72759 1.36665 6.7256 0.354189C6.72523 0.294501 6.73083 0.235187 6.73717 0.117676Z" fill="#808080"/>
<path d="M7.74958 0C7.90365 0.0343206 8.0607 0.0589414 8.21141 0.104454C9.30588 0.426554 10.2991 1.02483 11.0955 1.84175C11.3596 2.11184 11.3689 2.12042 11.0537 2.31627C10.7011 2.53525 10.3326 2.72849 9.97482 2.93963C9.83567 3.02208 9.77897 2.98888 9.71891 2.84003C9.35705 1.94471 8.87469 1.12661 8.17373 0.45251C8.02936 0.313362 7.87529 0.183913 7.72607 0.0499885L7.74958 0Z" fill="#808080"/>
<path d="M5.12788 0.0779051C5.09451 0.118773 5.05823 0.157174 5.01932 0.192805C4.28627 0.771779 3.79086 1.53094 3.382 2.35649C3.29695 2.52847 3.21674 2.70343 3.14325 2.88063C3.10221 2.97986 3.04588 3.00112 2.95673 2.95039C2.54214 2.71388 2.12768 2.47761 1.71335 2.24159C1.57868 2.16437 1.56973 2.09014 1.68537 1.97039C2.47885 1.14669 3.39245 0.515493 4.49817 0.185717C4.69663 0.126402 4.89584 0.0685786 5.09505 0.0100098C5.10549 0.0312736 5.11668 0.054403 5.12788 0.0779051Z" fill="#808080"/>
<path d="M19.7565 19.0699C19.7543 19.2915 19.7028 19.4915 19.5293 19.6541C19.2894 19.8779 19.0589 20.113 18.8298 20.3484C18.4165 20.774 17.7081 20.7162 17.2813 20.1838C17.2018 20.0842 17.2772 20.0395 17.3324 19.985C17.6902 19.6328 18.0498 19.2825 18.4072 18.93C18.628 18.7125 18.8548 18.4988 19.0619 18.2705C19.182 18.1395 19.2577 18.1541 19.3745 18.2757C19.5923 18.501 19.78 18.7319 19.7565 19.0699Z" fill="#808080"/>
<path d="M12.652 4.42263C12.3121 4.31631 12.029 4.1988 11.7343 4.14247C11.2609 4.04996 10.7808 3.99139 10.3025 3.92834C10.1242 3.90484 9.96378 3.72354 10.0041 3.5497C10.0134 3.51239 10.0604 3.47248 10.0992 3.44935C10.5894 3.15949 11.0822 2.8741 11.5713 2.58275C11.6552 2.53276 11.7041 2.5406 11.7503 2.62565C12.0047 3.09308 12.2644 3.55828 12.5139 4.02757C12.5725 4.138 12.5986 4.26558 12.652 4.42263Z" fill="#808080"/>
<path d="M3.12388 9.9563C3.15298 10.0634 3.20184 10.1555 3.19849 10.2447C3.16664 10.8658 3.21238 11.4885 3.33465 12.0984C3.34087 12.1353 3.3425 12.1729 3.3395 12.2103C3.33269 12.234 3.32265 12.2568 3.30966 12.2778C3.25986 12.2576 3.21128 12.2346 3.16417 12.2088C2.62287 11.873 2.12186 11.4903 1.6839 11.0247C1.57759 10.9128 1.58393 10.8501 1.70517 10.7636C2.1455 10.4409 2.62154 10.17 3.12388 9.9563Z" fill="#808080"/>
<path d="M4.35855 6.79403C4.15635 7.17417 3.95602 7.50843 3.79897 7.86133C3.64378 8.2064 3.53149 8.57013 3.38451 8.97078C3.35495 8.91353 3.32842 8.85475 3.30505 8.7947C3.11629 8.19782 3.05399 7.5808 3.01669 6.96079C3.0137 6.90782 3.0913 6.80262 3.13532 6.8015C3.52888 6.78956 3.92618 6.79403 4.35855 6.79403Z" fill="#808080"/>
<path d="M6.73335 4.70053C6.73335 4.53863 6.72327 4.38605 6.74081 4.23683C6.74528 4.19953 6.83631 4.15177 6.89003 4.14431C7.50295 4.06373 8.11811 3.99845 8.72991 3.91041C8.9418 3.87982 9.14549 3.79178 9.35589 3.74329C9.39991 3.73321 9.45773 3.78246 9.50884 3.80409C9.47825 3.84587 9.45139 3.92011 9.41632 3.92421C8.5161 4.02254 7.64084 4.2817 6.83221 4.68934C6.79987 4.69731 6.76665 4.70108 6.73335 4.70053Z" fill="#808080"/>
<path d="M14.6888 10.6873C14.753 13.2344 12.5874 15.3448 10.0552 15.3675C7.44383 15.391 5.27529 13.2329 5.30998 10.6343C5.34318 8.13075 7.39272 6.11292 9.85261 6.04577C12.6471 5.97116 14.7 8.19603 14.6888 10.6873ZM5.83785 10.7682C5.90052 13.199 7.937 14.896 10.1078 14.83C12.5498 14.7554 14.3042 12.7036 14.1591 10.4418C14.014 8.17999 12.0715 6.47366 9.76569 6.59751C7.40242 6.72435 5.77928 8.73509 5.83785 10.7682Z" fill="#808080"/>
<path d="M10.505 6.92578C11.3883 7.08433 12.1292 7.41075 12.7205 8.03075C12.7436 8.06103 12.7599 8.09592 12.7684 8.13306C12.7768 8.1702 12.7771 8.20872 12.7694 8.24601C12.5661 9.00136 12.2294 9.71429 11.7752 10.3511C11.7077 10.4474 11.6596 10.4541 11.5514 10.3884C11.0788 10.0962 10.5998 9.81406 10.1144 9.54198C10.0025 9.47968 9.98419 9.43007 10.0084 9.3133C10.138 8.68931 10.2612 8.06396 10.3781 7.43723C10.4013 7.31636 10.3871 7.18841 10.4098 7.06717C10.4225 7.01046 10.4803 6.96271 10.505 6.92578Z" fill="#808080"/>
<path d="M6.75608 12.7376C6.75048 12.663 6.74414 12.6137 6.74414 12.5656C6.74414 11.5655 6.74824 10.5649 6.74414 9.56442C6.74414 9.40774 6.79525 9.35925 6.95081 9.3641C7.69628 9.38554 8.43553 9.50674 9.14882 9.72446C9.26074 9.75841 9.30214 9.80429 9.25029 9.92553C8.87164 10.8089 8.3781 11.6151 7.6514 12.2552C7.4589 12.425 7.21866 12.5425 6.99483 12.6738C6.93066 12.7115 6.84673 12.7145 6.75608 12.7376Z" fill="#808080"/>
<path d="M9.93938 7.06569C9.80322 7.74613 9.66556 8.4262 9.53238 9.10702C9.50329 9.25624 9.4283 9.28459 9.294 9.23535C8.52776 8.95332 7.72309 8.88244 6.91544 8.83432C6.72481 8.82275 6.68676 8.75971 6.79159 8.60377C7.16754 8.03581 7.69221 7.58197 8.30841 7.29176C8.76166 7.078 9.23245 6.93773 9.7357 6.91087C9.85171 6.90453 9.90133 6.93923 9.8879 7.0545L9.93938 7.06569Z" fill="#808080"/>
<path d="M7.68384 12.9232C7.716 12.8859 7.75025 12.8504 7.78643 12.8169C8.69965 12.1137 9.2831 11.1736 9.71621 10.1268C9.76844 10.0008 9.82328 9.95599 9.94974 10.0299C10.3663 10.2748 10.784 10.5179 11.2028 10.7592C11.3401 10.839 11.3241 10.9158 11.2218 11.0203C10.4407 11.8201 9.53827 12.4245 8.46127 12.749C8.25423 12.8113 8.04495 12.8665 7.83567 12.9217C7.8006 12.9311 7.76255 12.9232 7.68384 12.9232Z" fill="#808080"/>
<path d="M6.18864 10.52V11.1169H6.14648V10.52H6.18864Z" fill="#808080"/>
</svg>
