<svg width="24" height="23" viewBox="0 0 24 23" fill="none" xmlns="http://www.w3.org/2000/svg">
<path d="M22.1843 14.6198C22.2037 14.5448 22.2174 14.4685 22.2251 14.3914C22.1903 12.8323 22.3457 11.2612 22.0128 9.7195C21.2761 6.30395 19.3494 3.78582 16.199 2.24816C13.4117 0.887968 10.5567 0.838408 7.71575 2.03385C4.99068 3.1804 3.07396 5.17012 1.96089 7.9193C1.43851 9.20784 1.2242 10.5546 1.2242 11.9376C1.2242 12.7073 1.2242 13.4773 1.2242 14.2474C1.2242 14.3432 1.23693 14.4396 1.24831 14.599C1.80753 14.2334 2.39487 14.2294 2.98556 14.2407C3.84748 14.2582 4.39196 14.7839 4.3953 15.6398C4.40379 17.481 4.40379 19.3223 4.3953 21.1636C4.39196 21.9726 3.83542 22.503 3.02172 22.5358C2.1973 22.5673 1.41775 22.4635 0.770137 21.8882C0.296649 21.4683 0.0240761 20.9506 0.0240761 20.309C0.0240761 17.3409 -0.0388771 14.3707 0.0388099 11.4018C0.131231 7.89252 1.57915 4.98127 4.26605 2.71696C6.52165 0.828363 9.14023 -0.096514 12.0803 0.00796151C15.3009 0.122483 18.0361 1.3715 20.2508 3.72823C22.0302 5.62017 23.0248 7.88046 23.3663 10.4348C23.419 10.8669 23.4436 11.302 23.44 11.7373C23.4453 14.5501 23.44 17.363 23.44 20.1758C23.44 21.1475 22.9779 21.8326 22.1327 22.2612C21.4931 22.5854 20.7933 22.6209 20.1061 22.505C19.4585 22.3965 19.0554 21.8688 19.0527 21.1897C19.0438 19.3257 19.0417 17.4621 19.0467 15.5989C19.0467 14.8234 19.5945 14.2796 20.37 14.2454C20.9875 14.2153 21.5976 14.23 22.1843 14.6198Z" fill="#2681C2"/>
<path d="M6.45456 22.4949C6.51417 21.4903 6.56707 20.5527 6.62534 19.6212C6.67356 18.853 6.7633 18.0855 6.75928 17.3173C6.75928 16.939 6.57645 16.5646 6.51149 16.1822C6.00451 13.1879 8.02906 10.4541 11.0421 10.0529C12.4233 9.86292 13.8242 10.2188 14.9472 11.045C16.0703 11.8712 16.8271 13.1026 17.0568 14.4778C17.4312 16.6878 16.1018 19.0606 14.015 19.9487C12.7043 20.5072 11.3823 20.548 10.0261 20.1496C9.89756 20.1121 9.70067 20.169 9.58414 20.2514C8.64654 20.9137 7.72032 21.5908 6.79009 22.2652C6.7037 22.3302 6.61127 22.3884 6.45456 22.4949ZM9.40131 13.7739C9.73081 13.8174 10.0402 13.8496 10.3456 13.9018C10.5579 13.938 10.6711 13.9065 10.7046 13.6553C10.7548 13.2776 10.9135 12.9535 11.3006 12.7901C11.75 12.5999 12.3474 12.7465 12.5945 13.1209C12.8249 13.4698 12.707 13.9473 12.3018 14.3023C12.1846 14.4048 12.0607 14.5032 11.9476 14.6077C11.5384 14.9954 11.1566 15.3986 11.1319 16.0141C11.101 16.7856 11.1017 16.6249 11.7346 16.6403C11.8351 16.6403 11.9355 16.6295 12.036 16.6403C12.2536 16.663 12.3708 16.6001 12.3641 16.353C12.3554 15.9304 12.5704 15.6163 12.8899 15.3578C13.1462 15.1613 13.3888 14.9473 13.6158 14.7175C13.7888 14.5378 13.9208 14.3228 14.0027 14.0872C14.0846 13.8516 14.1144 13.601 14.0902 13.3528C14.0659 13.1045 13.9881 12.8645 13.8622 12.6492C13.7363 12.4339 13.5652 12.2484 13.3607 12.1056C12.5925 11.5544 11.7252 11.5377 10.8613 11.7768C9.93172 12.0346 9.38456 12.8162 9.40131 13.7739ZM11.7453 17.1064C11.6482 17.1049 11.5517 17.123 11.4617 17.1595C11.3717 17.196 11.2899 17.2502 11.2212 17.3189C11.1525 17.3876 11.0983 17.4694 11.0618 17.5595C11.0252 17.6495 11.0072 17.7459 11.0086 17.8431C11.0064 17.9421 11.0241 18.0407 11.0606 18.1328C11.0971 18.2249 11.1518 18.3087 11.2213 18.3794C11.2908 18.45 11.3738 18.5059 11.4653 18.5439C11.5568 18.5819 11.6551 18.6011 11.7542 18.6004C11.8533 18.5998 11.9512 18.5792 12.0422 18.54C12.1332 18.5008 12.2154 18.4437 12.284 18.3722C12.3526 18.3006 12.4061 18.216 12.4413 18.1234C12.4766 18.0308 12.4929 17.9321 12.4894 17.833C12.482 17.4031 12.1766 17.101 11.7453 17.1064Z" fill="#2681C2"/>
</svg>
