<svg width="20" height="17" viewBox="0 0 20 17" fill="none" xmlns="http://www.w3.org/2000/svg">
<path d="M5.16027 1.45635C5.16027 1.0461 5.16027 0.669167 5.16027 0.292234C5.16027 0.0513817 5.20964 0 5.44126 0C8.38501 0 11.3288 0 14.2725 0C14.4953 0 14.5535 0.0553957 14.5587 0.275775C14.5647 0.612566 14.5691 0.949358 14.5587 1.28575C14.5551 1.42665 14.6025 1.46237 14.7377 1.46157C15.5807 1.45635 16.4213 1.46879 17.2631 1.45474C17.6826 1.44792 17.9627 1.6683 17.9615 2.13917C17.9535 5.27024 17.9615 8.3981 17.9587 11.5276C17.9587 11.642 17.9559 11.7648 17.9154 11.8684C17.8227 12.1092 17.6276 12.1927 17.3747 12.1919C16.1728 12.1875 14.971 12.1919 13.7691 12.1919H2.51812C2.4543 12.1919 2.39047 12.1919 2.32665 12.1919C1.96537 12.1811 1.75703 11.9703 1.75663 11.6099C1.75663 10.5128 1.75944 9.4153 1.75864 8.31822C1.75703 6.26911 1.75436 4.21959 1.75061 2.16967C1.75061 1.68034 1.97059 1.45876 2.46353 1.45876C3.28805 1.45876 4.11243 1.45956 4.93668 1.46117L5.16027 1.45635ZM5.57172 0.412659V10.6115H14.14V0.412659H5.57172ZM5.15144 1.86861H2.47798C2.18495 1.86861 2.16287 1.89189 2.16287 2.18694C2.16474 5.29821 2.16662 8.40974 2.16849 11.5215C2.16849 11.7504 2.19819 11.7829 2.42941 11.7829H17.302C17.5344 11.7829 17.5629 11.7532 17.5629 11.522C17.5629 8.39302 17.5629 5.26408 17.5629 2.13515C17.5629 1.91758 17.514 1.86781 17.3008 1.8674H14.5752V2.78104H14.7719C15.2536 2.78104 15.7353 2.78023 16.217 2.77863C16.4578 2.77863 16.504 2.8272 16.5044 3.06364L16.5116 10.7621C16.5116 10.9664 16.4502 11.0274 16.2378 11.0286C15.9593 11.0286 15.6807 11.0286 15.4021 11.0286H3.54215C3.28965 11.0286 3.21419 10.962 3.21419 10.736C3.21205 8.17572 3.21071 5.61559 3.21017 3.05561C3.21017 2.84446 3.26436 2.78505 3.47752 2.78344C3.96524 2.77943 4.45297 2.78144 4.94029 2.78104H5.15144V1.86861ZM5.15144 10.6139V3.20132H3.62925V10.6139H5.15144ZM14.5736 3.19932V10.6087H16.0917V3.19932H14.5736Z" fill="#B6EBFF"/>
<path d="M9.86529 16.6405H0.687631C0.228005 16.6405 0.000802839 16.4161 0 15.9609C0 15.8806 0 15.7983 0 15.7168C0 14.9007 -5.74236e-07 14.9016 0.435941 14.2167C0.783571 13.668 1.13762 13.1233 1.46799 12.5641C1.59203 12.3541 1.72972 12.2743 1.97699 12.2747C7.09135 12.2819 12.2057 12.2835 17.3201 12.2795C17.5236 12.2795 17.7275 12.2678 17.9294 12.2843C18.0097 12.2907 18.1141 12.3397 18.1546 12.4047C18.6775 13.2263 19.194 14.0523 19.7041 14.8827C19.7388 14.9488 19.7563 15.0227 19.7547 15.0974C19.7603 15.3877 19.7587 15.6779 19.7547 15.9681C19.7511 16.4161 19.5238 16.6413 19.0763 16.6413L9.86529 16.6405ZM0.582861 14.7775H19.1469C19.1188 14.7205 19.1028 14.6788 19.0799 14.6414C18.6969 14.0265 18.3104 13.4135 17.9326 12.7949C17.8652 12.6841 17.7797 12.6745 17.6705 12.6745C14.2986 12.6745 10.9257 12.6745 7.55191 12.6745C5.72358 12.6745 3.89498 12.6745 2.06611 12.6745C1.96656 12.6745 1.88145 12.6745 1.81522 12.7808C1.43829 13.393 1.05252 13.9996 0.67037 14.6085C0.641067 14.6575 0.618989 14.7081 0.582861 14.7775ZM0.39901 15.205C0.39901 15.4459 0.39901 15.6586 0.39901 15.8722C0.39901 16.1933 0.439152 16.2335 0.760288 16.2335H18.9771C19.0466 16.2335 19.1232 16.2459 19.1834 16.2206C19.2437 16.1953 19.3328 16.1323 19.3352 16.0821C19.3492 15.7891 19.342 15.4953 19.342 15.2074L0.39901 15.205Z" fill="#B6EBFF"/>
<path d="M5.57166 0.412598H14.14V10.6115H5.57166V0.412598ZM9.84397 6.09148V6.08867H11.098C11.5974 6.08867 12.0963 6.08867 12.5957 6.08867C12.7406 6.08867 12.8398 6.0393 12.8402 5.88555C12.8406 5.73181 12.7366 5.67762 12.5957 5.67762C12.5319 5.67762 12.468 5.67521 12.4042 5.67521C10.6626 5.67521 8.92097 5.67668 7.17934 5.67963C7.12154 5.67963 7.04527 5.66638 7.01034 5.69689C6.94772 5.75068 6.87426 5.83297 6.87346 5.90442C6.87346 5.96423 6.96057 6.03809 7.026 6.08064C7.06614 6.10754 7.1388 6.08948 7.1966 6.08948L9.84397 6.09148ZM9.87206 7.46313V7.46032H12.5375C12.5841 7.46032 12.6447 7.47357 12.6736 7.45029C12.7378 7.3977 12.8173 7.33267 12.8341 7.26002C12.8578 7.15364 12.7832 7.07496 12.6688 7.05609C12.6287 7.05202 12.5885 7.05108 12.5483 7.05328H7.18416C7.138 7.05328 7.07577 7.03723 7.04808 7.06091C6.98024 7.11831 6.88952 7.19057 6.88189 7.26443C6.87587 7.32224 6.97341 7.40131 7.03965 7.45149C7.07417 7.47718 7.1408 7.46193 7.19299 7.46193L9.87206 7.46313ZM9.84798 8.81873V8.81231H11.4492H12.6326C12.7587 8.81231 12.8333 8.74687 12.8374 8.62404C12.8434 8.49478 12.7751 8.41651 12.6423 8.40567C12.5961 8.40205 12.5495 8.40567 12.503 8.40567L10.7624 8.40767H7.195H7.12635C6.95254 8.41169 6.86423 8.48314 6.86664 8.61802C6.86904 8.75289 6.96097 8.81873 7.13438 8.81873H9.84798ZM9.84798 4.73348C10.7644 4.73348 11.6809 4.73348 12.5973 4.73348C12.7346 4.73348 12.8293 4.68932 12.8345 4.54361C12.8398 4.39107 12.749 4.32564 12.6017 4.32965C12.5672 4.32965 12.5323 4.32965 12.4973 4.32965L7.2243 4.33487C7.16048 4.33487 7.08701 4.31962 7.03563 4.34571C6.97141 4.37863 6.89754 4.43964 6.88028 4.50306C6.86503 4.55766 6.90638 4.65199 6.95374 4.69294C7.00111 4.73388 7.083 4.73308 7.15044 4.73308C8.05015 4.73468 8.94933 4.73482 9.84798 4.73348ZM10.7359 2.1945L10.7797 2.19731C10.8724 2.50038 10.9724 2.80145 11.0555 3.10733C11.0956 3.25987 11.2064 3.2137 11.3027 3.22334C11.3991 3.23297 11.4476 3.20969 11.4765 3.10693C11.607 2.63847 11.7479 2.17322 11.884 1.70677C11.8936 1.66389 11.9006 1.62046 11.9049 1.57671C11.5556 1.52092 11.554 1.52172 11.4769 1.8272C11.4484 1.9396 11.4219 2.0524 11.3922 2.16439C11.3521 2.31693 11.3087 2.46867 11.2666 2.62081C11.15 2.32586 11.0509 2.02427 10.9699 1.71761C10.9402 1.60803 10.9021 1.55062 10.7737 1.55143C10.6452 1.55223 10.5729 1.57511 10.5384 1.71199C10.4609 2.01025 10.3646 2.30328 10.261 2.6477C10.1808 2.35426 10.1125 2.11141 10.0471 1.86734C9.95877 1.53738 9.95957 1.53697 9.62519 1.56186C9.61596 1.56186 9.60713 1.5731 9.58505 1.58876C9.71912 2.03032 9.85521 2.4783 9.99008 2.92589C10.084 3.23819 10.0832 3.23859 10.4212 3.21089C10.5256 2.87611 10.6311 2.53531 10.7367 2.1945H10.7359ZM7.85975 3.19805C7.86256 3.14747 7.86818 3.09087 7.86858 3.03427C7.87099 2.63446 7.87259 2.23451 7.8734 1.83443C7.8734 1.53778 7.8734 1.53738 7.57835 1.56387C7.55603 1.5716 7.53484 1.58227 7.51533 1.59558V2.48392C7.46381 2.46431 7.41992 2.42872 7.39009 2.38236C7.23474 2.166 7.06895 1.95565 6.92886 1.72966C6.82007 1.55343 6.68198 1.52895 6.49653 1.57712V3.20608H6.84496V2.20454C7.05851 2.50841 7.2516 2.76652 7.42621 3.03788C7.53339 3.20246 7.66064 3.26268 7.86055 3.19765L7.85975 3.19805ZM8.2716 3.21009H9.43813V2.89417H8.64573V2.53611H9.30084V2.23785H8.9203C8.60599 2.23785 8.60599 2.23785 8.63931 1.91953C8.63931 1.90949 8.65095 1.90026 8.67102 1.86895H9.41244V1.56668H8.27241L8.2716 3.21009ZM13.254 1.71159C13.0288 1.56026 12.8446 1.5161 12.5768 1.54219C12.2866 1.57069 12.1136 1.72323 12.0899 1.97171C12.0626 2.25833 12.1702 2.40525 12.4773 2.50159C12.5929 2.53771 12.7145 2.5622 12.8229 2.61398C12.8727 2.63807 12.9285 2.71875 12.9237 2.76813C12.9188 2.8175 12.8498 2.88374 12.7956 2.9014C12.7174 2.92556 12.634 2.92736 12.5548 2.90662C12.4237 2.86511 12.2949 2.81661 12.169 2.7613C12.1548 2.79249 12.1383 2.82255 12.1196 2.85122C12.0128 2.98891 12.0566 3.0704 12.2067 3.13703C12.4194 3.23378 12.657 3.26185 12.8863 3.21732C13.13 3.17156 13.2877 2.99734 13.3078 2.77054C13.3283 2.55096 13.2103 2.37835 12.9654 2.28482C12.8522 2.24147 12.727 2.22581 12.6206 2.17082C12.5499 2.13389 12.456 2.05039 12.4564 1.98697C12.4564 1.86172 12.5865 1.84888 12.6824 1.86172C12.8333 1.88179 12.9811 1.92635 13.1404 1.96288C13.1798 1.88541 13.2147 1.80151 13.2548 1.71119L13.254 1.71159Z" fill="#EEFAF8"/>
</svg>
