<svg width="19" height="19" viewBox="0 0 19 19" fill="none" xmlns="http://www.w3.org/2000/svg">
<path d="M16.9771 7.66366C16.9734 8.37302 16.7874 9.01386 16.2743 9.53019C15.93 9.87574 15.5129 10.0583 15.0219 10.062C14.8286 10.0635 14.6831 9.94625 14.6593 9.77123C14.6305 9.55844 14.7343 9.38967 14.9313 9.34166C15.0076 9.32291 15.0886 9.32341 15.1649 9.30491C15.6289 9.19239 15.9355 8.8936 16.0858 8.45478C16.267 7.9242 16.2888 7.37962 16.0558 6.85679C15.8535 6.40197 15.5124 6.10668 15.0023 6.03992C14.7488 6.00641 14.6228 5.83864 14.658 5.58535C14.6868 5.37982 14.8801 5.2483 15.1136 5.2808C15.995 5.40432 16.5436 5.9309 16.8231 6.74627C16.9231 7.03782 16.9519 7.35361 17.0132 7.65841L16.9771 7.66366Z" fill="white"/>
<path d="M5.07502 4.67228C5.52509 4.67228 5.97515 4.65727 6.42372 4.67653C6.86529 4.69578 7.2771 4.60477 7.68866 4.45424C8.67356 4.09369 9.60195 3.62137 10.5028 3.08954C11.5735 2.45744 12.5631 1.71083 13.5365 0.941466C13.6546 0.84268 13.7663 0.736447 13.8708 0.623418C14.2709 0.215607 14.7325 -0.0386817 15.3241 0.00482487C15.7726 0.0378298 16.1289 0.254862 16.436 0.563409C16.8965 1.02648 17.1933 1.59506 17.4431 2.18865C17.8872 3.24406 18.1337 4.34998 18.2733 5.4839C18.4158 6.64107 18.4448 7.8015 18.3983 8.96442C18.3373 10.4624 18.1085 11.9319 17.6032 13.3483C17.3339 14.1024 16.9861 14.8148 16.3967 15.3814C15.9307 15.8297 15.3883 16.0145 14.7502 15.8535C14.4941 15.7901 14.2582 15.663 14.0644 15.4839C12.8252 14.3435 11.4622 13.3713 10.0238 12.5012C9.13824 11.9621 8.19267 11.5285 7.20634 11.2093C6.97705 11.1357 6.71326 11.1665 6.46523 11.1593C6.44022 11.1593 6.39247 11.2215 6.38847 11.2593C6.37996 11.3375 6.35846 11.4355 6.47223 11.4658C6.66101 11.5158 6.84928 11.5706 7.04056 11.6086C7.2551 11.6513 7.34061 11.7273 7.38086 11.9461C7.45754 12.3679 7.53447 12.7897 7.61165 13.2116C7.67116 13.5366 7.62565 13.6366 7.33661 13.8042C7.23959 13.8607 7.14208 13.9164 7.04231 13.9679C6.96855 14.0059 6.9573 14.0497 6.98805 14.1287C7.22385 14.7441 7.55071 15.3206 7.9577 15.839C8.13273 16.062 8.29425 16.2855 8.29625 16.5841C8.2985 16.9411 8.27125 17.2937 8.09197 17.6137C7.85419 18.0403 7.2611 18.2528 6.79703 18.0558C6.2847 17.838 5.78412 17.5927 5.2783 17.3594C5.26373 17.3513 5.24861 17.3442 5.23304 17.3382C4.89124 17.2334 4.73622 16.9939 4.64945 16.6498C4.41017 15.7017 4.13763 14.7618 3.87634 13.8192C3.64855 12.9968 3.41652 12.1757 3.19098 11.3528C3.15548 11.2225 3.10422 11.1558 2.95345 11.1372C2.51213 11.0835 2.17833 10.833 1.90479 10.4964C1.83553 10.4109 1.76127 10.3656 1.65325 10.3624C0.788122 10.3359 0.0280072 9.58977 0.00900434 8.65213C-0.00224735 8.09479 -0.0122489 7.53321 0.040009 6.97937C0.11502 6.19526 0.832128 5.55416 1.61975 5.51115C1.73326 5.5049 1.81228 5.4684 1.88204 5.37613C2.24659 4.89381 2.73817 4.66753 3.33901 4.66828C3.91759 4.66928 4.49618 4.66928 5.07477 4.66828L5.07502 4.67228ZM12.6937 8.22106C12.7012 8.4641 12.6999 8.91492 12.7329 9.36323C12.7892 10.161 12.9028 10.9536 13.0727 11.7351C13.2613 12.5897 13.534 13.4123 13.9821 14.1697C14.1741 14.4948 14.3854 14.8028 14.7162 15.0051C15.03 15.1974 15.3516 15.2126 15.6519 14.9931C15.822 14.867 15.975 14.7192 16.1069 14.5535C16.5417 14.0099 16.8113 13.3803 17.0248 12.7227C17.4291 11.4768 17.6087 10.1909 17.6619 8.89016C17.7277 7.27942 17.6419 5.67493 17.2724 4.09794C17.0943 3.33783 16.8508 2.59772 16.478 1.90961C16.269 1.52305 16.0279 1.1565 15.6451 0.915462C15.3233 0.713431 15.0003 0.722433 14.6835 0.929214C14.3977 1.11574 14.1931 1.37703 14.0234 1.66733C13.4273 2.68498 13.117 3.7999 12.9232 4.95182C12.7512 5.96497 12.6982 6.98813 12.6937 8.22106ZM12.7862 2.5142L12.7612 2.4907L12.6424 2.57196C12.0938 2.94127 11.5552 3.32632 10.9947 3.67613C10.0755 4.24921 9.11588 4.74704 8.09422 5.11909C7.75167 5.24411 7.41637 5.39414 7.04231 5.41714C6.98606 5.42039 6.9188 5.48365 6.88229 5.53691C6.55174 6.01923 6.36321 6.55731 6.2752 7.1329C6.19469 7.66023 6.20869 8.18731 6.27945 8.71414C6.35076 9.28247 6.55647 9.82563 6.87954 10.2986C6.9195 10.3491 6.97493 10.385 7.03731 10.4009C7.24459 10.4569 7.45988 10.4864 7.66366 10.5524C8.38877 10.7872 9.08262 11.1025 9.75522 11.4605C10.7639 11.9944 11.703 12.6302 12.6232 13.2988C12.6567 13.3238 12.6932 13.3431 12.7282 13.3653C12.1513 11.5868 11.9345 9.77179 11.9478 7.92527C11.9611 6.07874 12.1413 4.26172 12.7862 2.5142ZM6.04366 5.44439C5.9769 5.43889 5.93715 5.43264 5.89739 5.43264C5.03609 5.43364 4.17472 5.43539 3.31325 5.43789C3.21357 5.43421 3.11388 5.44482 3.01721 5.4694C2.6389 5.58416 2.40361 5.85771 2.25659 6.20901C1.87379 7.12315 1.90654 8.07229 2.05656 9.02293C2.12082 9.42999 2.2836 9.8063 2.58614 10.1056C2.77042 10.2879 2.98245 10.4071 3.24924 10.4056C4.12737 10.4041 5.00551 10.4026 5.88364 10.4011C6.02516 10.4011 6.03241 10.3866 5.9709 10.2601C5.75462 9.8153 5.59085 9.34973 5.54159 8.85841C5.49793 8.411 5.48123 7.96137 5.49158 7.51195C5.50413 6.94008 5.62751 6.37608 5.85488 5.8512C5.90964 5.72344 5.9724 5.59742 6.04366 5.44439ZM4.80898 11.1488V11.153C4.56344 11.153 4.3179 11.153 4.07237 11.153C3.92234 11.153 3.91934 11.1585 3.95885 11.3008C4.20339 12.1787 4.44784 13.0567 4.69221 13.9347C4.92424 14.7731 5.15411 15.6122 5.38181 16.4518C5.3903 16.4922 5.40874 16.5299 5.43546 16.5613C5.46218 16.5928 5.49634 16.6171 5.53484 16.6321C5.67261 16.6901 5.80738 16.7571 5.94315 16.8191C6.30845 16.9896 6.67101 17.1667 7.04006 17.3289C7.21509 17.4054 7.37361 17.3444 7.44012 17.1672C7.49392 17.0193 7.52166 16.8632 7.52214 16.7058C7.52089 16.5954 7.48465 16.4881 7.41862 16.3995C7.10333 16.0069 6.83122 15.5815 6.607 15.1306C6.01516 13.9172 5.65835 12.645 5.68386 11.2828C5.68586 11.1758 5.64685 11.1458 5.54559 11.148C5.3003 11.1525 5.05451 11.1488 4.80898 11.1488ZM1.37321 6.36328C1.3468 6.36627 1.32085 6.37248 1.29595 6.38178C1.02366 6.53456 0.811375 6.76209 0.789122 7.06839C0.749866 7.60622 0.759617 8.1483 0.769869 8.68813C0.772619 8.82665 0.840379 8.97042 0.903639 9.09919C0.998653 9.29272 1.15368 9.42949 1.37521 9.51501C1.12242 8.4546 1.17368 7.41394 1.37321 6.36328ZM6.48348 12.3069C6.55299 12.6252 6.6205 12.9355 6.68776 13.2436C6.81978 13.2266 6.84953 13.1781 6.82503 13.0765C6.77319 12.8635 6.72785 12.6489 6.68901 12.4327C6.66876 12.3197 6.608 12.2922 6.48348 12.3069Z" fill="white"/>
</svg>
