<svg width="20" height="20" viewBox="0 0 20 20" fill="none" xmlns="http://www.w3.org/2000/svg">
<path d="M5.52388 1.7994C5.52388 1.5685 5.52849 1.3376 5.52388 1.10705C5.51855 0.919841 5.60274 0.802257 5.77609 0.747196C6.418 0.54329 7.05992 0.338675 7.7036 0.140098C7.9004 0.0793524 8.00307 0.131216 8.12989 0.329438C8.36114 0.68716 8.59382 1.04382 8.81869 1.40545C8.87197 1.49106 8.92526 1.52658 9.02934 1.52623C9.64816 1.52623 9.64603 1.52623 9.932 0.978099C10.0712 0.710962 10.2236 0.450574 10.3636 0.183437C10.445 0.0285538 10.5675 -0.0243766 10.7309 0.0100813C11.3956 0.150399 12.0606 0.290362 12.7242 0.436364C12.9593 0.488229 13.0286 0.581655 13.041 0.838846C13.0609 1.25873 13.079 1.67898 13.0908 2.09922C13.0936 2.21396 13.133 2.28466 13.2382 2.33368C13.3829 2.40064 13.5235 2.4762 13.6591 2.55996C13.7433 2.61218 13.8041 2.60224 13.8836 2.55179C14.2481 2.32053 14.6165 2.09532 14.9849 1.86868C15.2019 1.7344 15.333 1.74647 15.5263 1.92409C15.9881 2.34848 16.4489 2.77417 16.9088 3.20116C17.0967 3.37523 17.122 3.5056 17.0072 3.73864C16.8175 4.1262 16.6197 4.5095 16.4349 4.89919C16.4224 4.93237 16.4166 4.96773 16.418 5.00318C16.4193 5.03863 16.4277 5.07345 16.4428 5.10558C16.5319 5.27823 16.6037 5.50416 16.7515 5.59048C16.8992 5.6768 17.1245 5.61677 17.3159 5.61144C17.6179 5.60291 17.9198 5.58302 18.2211 5.57343C18.4452 5.56633 18.5283 5.62956 18.598 5.84305C18.7962 6.4498 18.9939 7.05678 19.1912 7.66399C19.2822 7.94427 19.2445 8.03912 19.0005 8.19685C18.6484 8.42562 18.2957 8.65404 17.9507 8.89311C17.896 8.93112 17.8566 9.02206 17.8506 9.09204C17.8392 9.23414 17.8648 9.37623 17.8577 9.51832C17.8506 9.66042 17.9177 9.72933 18.0353 9.79043C18.4022 9.98191 18.7653 10.1812 19.1276 10.3805C19.3582 10.5077 19.398 10.6014 19.3408 10.8593C19.2079 11.472 19.0745 12.0843 18.9404 12.6963C18.8775 12.9826 18.8214 13.0316 18.5212 13.0515C18.1074 13.0767 17.6939 13.1005 17.2801 13.1172C17.1735 13.1215 17.1205 13.1584 17.0566 13.2462C16.8019 13.5943 16.7856 13.9062 17.0889 14.2462C17.2715 14.4508 17.3916 14.7108 17.5404 14.9456C17.6751 15.1588 17.6726 15.2877 17.5092 15.4749C17.0848 15.9609 16.6585 16.4446 16.2303 16.9261C16.084 17.0905 15.9376 17.115 15.7181 17.0088C15.3458 16.8286 14.9753 16.6445 14.6065 16.4564C14.5078 16.406 14.4289 16.39 14.3348 16.4706C14.2451 16.5481 14.1448 16.6124 14.0371 16.6618C13.8666 16.7381 13.8172 16.8554 13.8282 17.0376C13.8524 17.4451 13.8574 17.8546 13.8673 18.2625C13.873 18.4916 13.8066 18.591 13.5945 18.6607C12.9823 18.8613 12.3694 19.0598 11.7558 19.2564C11.5274 19.3296 11.4243 19.2919 11.2773 19.0735C11.0428 18.7253 10.8116 18.3747 10.5867 18.0202C10.5213 17.9179 10.4506 17.8646 10.3277 17.8905C10.2812 17.9017 10.2331 17.9046 10.1856 17.899C9.83928 17.8451 9.65278 18.0095 9.52205 18.3204C9.39133 18.6312 9.21122 18.9186 9.05137 19.2134C8.94195 19.4159 8.85705 19.456 8.63539 19.4088C7.99383 19.2724 7.35227 19.1363 6.71143 18.9967C6.45815 18.9417 6.37857 18.8354 6.36614 18.5811C6.34554 18.1612 6.32316 17.7413 6.29118 17.3221C6.28621 17.26 6.23435 17.1911 6.18461 17.1445C6.12991 17.0941 6.04572 17.076 5.98746 17.0277C5.73275 16.8145 5.50611 16.8625 5.25319 17.0518C4.98392 17.2532 4.68481 17.4145 4.39849 17.5925C4.21163 17.7086 4.08268 17.7069 3.91608 17.557C3.41614 17.1037 2.92011 16.6464 2.42799 16.185C2.28057 16.0472 2.26814 15.8959 2.36725 15.6998C2.55659 15.325 2.7541 14.9538 2.93563 14.5758C2.96582 14.5126 2.95126 14.4096 2.92284 14.3392C2.76725 13.9538 2.50828 13.7709 2.06459 13.8522C1.76477 13.9076 1.45074 13.8813 1.14346 13.898C0.947373 13.909 0.833696 13.822 0.775083 13.638C0.572953 13.0018 0.363365 12.3677 0.163367 11.7307C0.088057 11.4913 0.127844 11.4046 0.336722 11.2707C0.689471 11.0426 1.0408 10.8128 1.39497 10.5872C1.49408 10.524 1.55554 10.4558 1.52037 10.3272C1.4998 10.2587 1.49459 10.1866 1.50509 10.1158C1.55909 9.83164 1.41309 9.69345 1.17508 9.578C0.845775 9.41886 0.532457 9.22668 0.21239 9.04764C0.0234042 8.94107 -0.0302365 8.83769 0.0152337 8.62135C0.154131 7.96808 0.299422 7.31657 0.441517 6.664C0.480237 6.48319 0.579703 6.39154 0.772241 6.38479C1.20989 6.36916 1.64719 6.33754 2.08484 6.3212C2.20136 6.31694 2.27063 6.27964 2.31254 6.16916C2.34719 6.06859 2.39496 5.97303 2.45464 5.88497C2.57506 5.72121 2.54771 5.58551 2.43936 5.42317C2.2319 5.11376 2.04576 4.79049 1.85038 4.47291C1.66957 4.17842 1.68236 4.08215 1.91397 3.83348C2.31799 3.40152 2.71964 2.96718 3.11893 2.53048C3.36049 2.26618 3.46138 2.24949 3.77931 2.41751C4.11892 2.59726 4.46385 2.76671 4.80346 2.94646C4.91003 3.0033 4.98818 2.97346 5.09404 2.92728C5.4848 2.75712 5.63116 2.47719 5.55194 2.0637C5.5356 1.97809 5.54945 1.88608 5.54945 1.79763L5.52388 1.7994ZM1.19 13.4305C1.6685 13.4114 2.14168 13.395 2.61414 13.3709C2.78181 13.3616 2.89406 13.4163 2.98003 13.5616C3.09883 13.7731 3.23114 13.9767 3.37612 14.1712C3.51004 14.3421 3.51146 14.4938 3.41164 14.676C3.22053 15.0312 3.04149 15.3897 2.85499 15.746C2.80952 15.8326 2.79424 15.8994 2.88163 15.9783C3.28423 16.3442 3.68363 16.7142 4.07984 17.0884C4.16226 17.1666 4.22194 17.1594 4.30932 17.1037C4.67699 16.8671 5.05141 16.6419 5.41944 16.4032C5.54981 16.3193 5.6681 16.3204 5.80025 16.3943C6.02689 16.5211 6.25211 16.6543 6.48905 16.7595C6.67981 16.8436 6.74979 16.9726 6.75761 17.1712C6.77324 17.5911 6.80734 18.0102 6.82866 18.4301C6.83292 18.5221 6.8585 18.5672 6.95299 18.5871C7.47921 18.6987 8.00449 18.8138 8.52882 18.9324C8.63326 18.9559 8.68867 18.9243 8.73769 18.8291C8.94089 18.4347 9.15829 18.0475 9.35758 17.6518C9.43644 17.4955 9.54976 17.4461 9.71282 17.4451C9.96681 17.4451 10.2219 17.438 10.4752 17.4173C10.6485 17.4035 10.7682 17.455 10.8624 17.6038C11.0894 17.9637 11.3313 18.3143 11.5551 18.6767C11.6233 18.7868 11.6872 18.7974 11.7991 18.7605C12.2986 18.5957 12.8016 18.4408 13.2996 18.2731C13.3465 18.2571 13.397 18.163 13.3959 18.1058C13.3888 17.6618 13.3742 17.2179 13.3522 16.7744C13.344 16.6067 13.4012 16.493 13.5472 16.4099C13.722 16.3108 13.9067 16.2188 14.0563 16.0902C14.3049 15.8724 14.5458 15.8643 14.809 16.0433C14.8286 16.0565 14.849 16.0684 14.8701 16.0788L15.906 16.5875L17.144 15.1946C16.8786 14.7716 16.6239 14.3595 16.3625 13.9513C16.326 13.9011 16.3054 13.841 16.3034 13.779C16.3013 13.7169 16.318 13.6557 16.3511 13.6032C16.4783 13.3694 16.6126 13.1382 16.7195 12.8952C16.7959 12.7218 16.9095 12.6607 17.0893 12.6561C17.5095 12.6448 17.9291 12.6174 18.349 12.6032C18.4626 12.5993 18.5106 12.5588 18.5337 12.4437C18.6342 11.9396 18.7429 11.437 18.8562 10.9354C18.8829 10.8167 18.8562 10.7542 18.7461 10.697C18.3582 10.4945 17.972 10.2885 17.5948 10.0672C17.512 10.0185 17.4261 9.9066 17.4172 9.8153C17.3816 9.5098 17.3841 9.20074 17.3685 8.89169C17.3629 8.8359 17.3738 8.77969 17.4001 8.73013C17.4263 8.68057 17.4666 8.63988 17.5159 8.61318C17.88 8.38157 18.2349 8.13468 18.6022 7.9084C18.7255 7.83273 18.7379 7.76204 18.6957 7.63664C18.5355 7.16062 18.3795 6.68319 18.2339 6.20255C18.1955 6.07573 18.1394 6.03914 18.0097 6.04732C17.5905 6.0736 17.1703 6.08284 16.7507 6.10593C16.5856 6.11517 16.469 6.06259 16.3849 5.91446C16.268 5.70175 16.1397 5.49553 16.0005 5.2967C15.8715 5.11908 15.8715 4.95887 15.9724 4.77131C16.1628 4.41607 16.3362 4.05409 16.5255 3.69921C16.5841 3.58979 16.5689 3.52514 16.4758 3.44486C16.2627 3.25907 16.0577 3.06049 15.8499 2.86724L15.2126 2.27649C14.7994 2.53403 14.4016 2.77879 14.008 3.02994C13.8705 3.11733 13.7447 3.13651 13.5952 3.05268C13.3465 2.91307 13.0936 2.78696 12.8421 2.65588C12.7146 2.58909 12.6581 2.48714 12.6524 2.34114C12.6353 1.90313 12.6048 1.46584 12.5892 1.02677C12.5853 0.920195 12.5565 0.872949 12.4471 0.849148C11.9152 0.738315 11.3844 0.621797 10.8549 0.499596C10.7409 0.473664 10.6968 0.525173 10.6513 0.612561C10.4577 0.985203 10.2528 1.35181 10.0659 1.72765C9.98102 1.89852 9.86663 1.97276 9.67516 1.97027C9.43793 1.96341 9.20051 1.97338 8.96469 2.00011C8.75155 2.02747 8.61727 1.95429 8.50786 1.77809C8.28726 1.42108 8.05493 1.07117 7.82971 0.717C7.78566 0.645953 7.75334 0.598352 7.65209 0.632454C7.13558 0.802967 6.61717 0.967442 6.09687 1.12588C5.9903 1.15785 5.97822 1.21398 5.98249 1.3074C6.00202 1.74505 6.01232 2.18306 6.03506 2.62177C6.04359 2.78838 5.98604 2.90596 5.84572 2.99193C5.61482 3.1358 5.38391 3.28145 5.16047 3.43491C5.02584 3.52727 4.89653 3.52336 4.76012 3.45267C4.62371 3.38198 4.49902 3.31448 4.36758 3.24663C4.08055 3.09886 3.79317 2.95179 3.50294 2.80259L2.21343 4.19547C2.47453 4.61678 2.72391 5.02566 2.98074 5.42956C3.02412 5.48936 3.04871 5.56073 3.05137 5.63457C3.05402 5.7084 3.03463 5.78135 2.99566 5.84412C2.86707 6.08355 2.75197 6.33008 2.63155 6.57377C2.60757 6.63121 2.56694 6.68014 2.51489 6.71426C2.46285 6.74839 2.40177 6.76615 2.33954 6.76525C1.90757 6.78159 1.47632 6.81285 1.04435 6.82706C0.916112 6.83132 0.855722 6.87182 0.83121 7.00006C0.728192 7.50994 0.619845 8.01911 0.50617 8.52757C0.480593 8.64089 0.509722 8.69808 0.609188 8.75031C0.980409 8.94639 1.34559 9.15385 1.71752 9.34817C1.88058 9.43342 1.96867 9.54354 1.96619 9.73715C1.96406 9.98581 1.97827 10.2345 1.99958 10.4831C2.0145 10.6561 1.96015 10.7723 1.81024 10.8668C1.41024 11.1187 1.01842 11.3826 0.613451 11.6483C0.77082 12.1435 0.925347 12.6323 1.08165 13.1211C1.11433 13.2202 1.15163 13.3193 1.19035 13.4305H1.19Z" fill="white"/>
<path d="M16.0447 9.70294C16.0672 13.3253 13.1293 16.3329 9.52188 16.321C5.91451 16.3092 2.99907 13.4274 2.9843 9.72344C2.9707 6.07112 5.87331 3.09351 9.47329 3.07458C13.0993 3.05328 16.0214 6.00172 16.0447 9.70294ZM9.50478 3.93777C6.34133 3.94921 3.79985 6.53328 3.82939 9.74632C3.85932 12.9664 6.42724 15.4752 9.56581 15.4543C12.6095 15.4338 15.219 12.9089 15.2023 9.63669C15.1825 6.51317 12.6045 3.92673 9.50478 3.93777Z" fill="#DEFFFF" fill-opacity="0.5"/>
<path d="M9.45343 13.1247C8.66261 13.1247 7.87179 13.1247 7.08097 13.1247C6.70277 13.1247 6.59252 13.0114 6.59706 12.6289C6.60299 12.2295 6.57298 11.8279 6.7237 11.4415C6.9463 10.8721 7.38171 10.581 7.94168 10.4383C8.11155 10.4002 8.27897 10.3518 8.44304 10.2931C8.53923 10.2546 8.62431 10.1921 8.6904 10.1114C8.7717 10.0094 8.75634 9.90249 8.62063 9.83981C7.78678 9.45523 7.41695 8.50794 7.6678 7.64423C7.92808 6.75041 8.75565 6.22453 9.70638 6.32971C10.4799 6.41505 11.1511 7.05425 11.2865 7.83439C11.4289 8.65207 11.0276 9.47046 10.3096 9.82459C10.1463 9.90533 10.1191 10.0243 10.2493 10.1532C10.3161 10.2177 10.396 10.2668 10.4834 10.297C10.7304 10.3813 10.9872 10.4386 11.2314 10.53C11.8922 10.7779 12.2781 11.3388 12.2986 12.0566C12.3042 12.2631 12.3007 12.4696 12.2986 12.676C12.2986 13.005 12.1818 13.1236 11.8552 13.1243C11.053 13.1258 10.2505 13.1258 9.44785 13.1243L9.45343 13.1247Z" fill="white"/>
<path d="M15.3201 9.697C15.3403 12.95 12.7034 15.6509 9.46572 15.6403C6.22801 15.6297 3.61132 13.0417 3.59807 9.71542C3.58585 6.43549 6.19102 3.76149 9.4221 3.74449C12.6766 3.72536 15.2992 6.37317 15.3201 9.697ZM9.45036 4.51967C6.61109 4.52994 4.33004 6.85053 4.35655 9.73596C4.38342 12.6278 6.68819 14.8807 9.50514 14.8619C12.237 14.8435 14.5791 12.5761 14.5641 9.63751C14.5463 6.83247 12.2324 4.50975 9.45036 4.51967Z" fill="white"/>
</svg>
