<svg width="18" height="18" viewBox="0 0 18 18" fill="none" xmlns="http://www.w3.org/2000/svg">
<path d="M8.50255 5.84073e-05C8.39063 0.00115987 8.28001 0.0243993 8.17705 0.0684868C8.07408 0.112574 7.98078 0.176638 7.90248 0.256984C7.82419 0.33733 7.76244 0.432441 7.72076 0.536785C7.67909 0.641129 7.65831 0.752665 7.65962 0.865084V7.70685C7.65968 7.93379 7.74948 8.15145 7.90927 8.3119C8.06906 8.47236 8.28575 8.56245 8.5117 8.56245C8.73765 8.56245 8.95434 8.47236 9.11413 8.3119C9.27392 8.15145 9.36372 7.93379 9.36378 7.70685V0.865084C9.36511 0.751118 9.34374 0.638016 9.30093 0.532465C9.25811 0.426914 9.19473 0.330998 9.11449 0.250406C9.03425 0.169815 8.93878 0.106185 8.83369 0.0631854C8.72861 0.0201855 8.61602 -0.00127348 8.50255 5.84073e-05ZM13.4688 1.71509C13.441 1.71429 13.4133 1.71484 13.3856 1.71676C13.2173 1.73111 13.0571 1.79544 12.9253 1.90152C12.7935 2.00761 12.6961 2.15064 12.6454 2.31249C12.5948 2.47434 12.5933 2.6477 12.641 2.81044C12.6887 2.97317 12.7835 3.11796 12.9134 3.22641C14.388 4.48413 15.3209 6.35612 15.3209 8.45828C15.3209 12.254 12.2864 15.3134 8.51585 15.3134C4.74532 15.3134 1.70416 12.254 1.70417 8.45828C1.70417 6.36828 2.6252 4.50901 4.08501 3.25144C4.17006 3.17852 4.23998 3.08947 4.29077 2.98941C4.34156 2.88935 4.37224 2.78024 4.38104 2.66828C4.38985 2.55631 4.37661 2.44376 4.34208 2.33693C4.30756 2.23011 4.25242 2.13117 4.17982 2.04574C4.10722 1.96032 4.01858 1.8901 3.91896 1.83909C3.81935 1.78807 3.7107 1.75721 3.59923 1.74837C3.48776 1.73953 3.37564 1.75286 3.26929 1.78754C3.16294 1.82223 3.06443 1.87759 2.97939 1.95051C1.15708 3.52036 8.01039e-06 5.86028 0 8.45828C-7.6565e-06 13.1767 3.8237 17.0234 8.51585 17.0234C13.208 17.0234 17.0234 13.1767 17.0234 8.45828C17.0234 5.84513 15.8549 3.49558 14.0141 1.92548C13.8627 1.79294 13.6695 1.71842 13.4688 1.71509Z" fill="white"/>
</svg>
