<svg width="17" height="18" viewBox="0 0 17 18" fill="none" xmlns="http://www.w3.org/2000/svg">
<path d="M14.0121 9.06998C14.0086 10.1366 13.7108 11.1088 13.1512 12.005C13.0962 12.0935 13.1196 12.1422 13.1829 12.207C13.9732 12.9974 14.7585 13.7877 15.552 14.5743C15.6617 14.683 15.6649 14.7456 15.5555 14.8519C15.0604 15.3318 14.5696 15.8165 14.0829 16.3061C13.9881 16.4009 13.935 16.3962 13.843 16.3026C13.0526 15.498 12.2585 14.7001 11.4684 13.8965C11.3758 13.8016 11.3059 13.7912 11.1839 13.8563C10.1448 14.414 9.03416 14.6514 7.86128 14.5161C6.81333 14.3994 5.82023 13.9869 4.998 13.3268C4.14736 12.6585 3.52252 11.7451 3.20802 10.7101C2.92887 9.81638 2.9001 8.90527 3.07808 7.9793C3.20928 7.29549 3.44829 6.66479 3.83366 6.09131C4.33948 5.33763 4.9784 4.72084 5.78266 4.28678C6.96408 3.64881 8.20682 3.43068 9.53461 3.69212C11.0293 3.98677 12.2025 4.76415 13.0611 6.01101C13.4886 6.63191 13.7807 7.31825 13.8901 8.07129C13.9388 8.40292 13.9723 8.73708 14.0121 9.06998ZM13.5379 9.05291C13.5695 8.25655 13.3258 7.40234 13.0068 6.80357C12.1624 5.21623 10.8308 4.32156 9.05502 4.07813C8.07707 3.93928 7.08025 4.11299 6.20692 4.57447C4.60567 5.40908 3.65662 6.72422 3.44418 8.54107C3.31772 9.62006 3.51942 10.6374 4.07045 11.5618C5.00875 13.1371 6.42411 13.9711 8.25045 14.0849C9.3503 14.1532 10.3632 13.856 11.2854 13.2535C11.384 13.1902 11.4327 13.207 11.5086 13.2851C12.2895 14.0754 13.0754 14.8613 13.8562 15.6523C13.9448 15.7421 13.9995 15.7585 14.0949 15.6577C14.326 15.413 14.5713 15.1816 14.8085 14.9426C15.0339 14.7153 15.0316 14.7147 14.8085 14.4902C14.0788 13.7605 13.3514 13.0284 12.6186 12.3019C12.5155 12.1998 12.5057 12.1191 12.5914 12.0038C12.7017 11.8565 12.8028 11.7025 12.8942 11.5428C13.333 10.7613 13.5638 9.92419 13.5385 9.05291H13.5379Z" fill="white"/>
<path d="M1.4478 5.31365C1.27392 5.31365 1.10004 5.32156 0.926483 5.30891C0.874004 5.30512 0.796866 5.25422 0.780427 5.20775C0.663771 4.87454 0.446267 4.66683 0.0934546 4.60708C0.00714846 4.59254 -0.0118193 4.54006 0.0062007 4.45628C0.174145 3.67831 0.48884 2.93948 0.933438 2.27934C1.01405 2.15795 1.06969 2.16048 1.19331 2.23793C1.57963 2.48009 1.97891 2.70202 2.37725 2.92459C2.44933 2.96474 2.4841 2.9935 2.4566 3.07918C2.2465 3.74232 2.1277 4.43098 2.10347 5.12618C2.09778 5.26592 2.05352 5.32662 1.90588 5.31587C1.75825 5.30512 1.59955 5.31365 1.4478 5.31365Z" fill="white"/>
<path d="M1.45029 5.76248C1.61341 5.76248 1.77686 5.76849 1.93999 5.76248C2.05696 5.75711 2.09806 5.80674 2.10375 5.91802C2.12967 6.55188 2.24664 7.17057 2.42147 7.77945C2.48944 8.01561 2.47932 8.0036 2.26498 8.1231C1.88561 8.33523 1.51099 8.56032 1.1411 8.79047C1.05321 8.84516 1.00801 8.84674 0.949521 8.76328C0.556559 8.20213 0.260336 7.59704 0.099737 6.92967C0.068123 6.80321 0.0393548 6.67423 0.00837311 6.54682C-0.012176 6.46273 0.0156439 6.42037 0.105744 6.40772C0.436742 6.36188 0.661201 6.18421 0.781334 5.86775C0.799038 5.8216 0.876176 5.77291 0.929604 5.76944C1.10222 5.75363 1.27673 5.76248 1.45029 5.76248Z" fill="white"/>
<path d="M3.3355 5.31991C3.13001 5.31991 2.92452 5.31454 2.71935 5.32181C2.59289 5.32623 2.53346 5.28577 2.5442 5.15078C2.59574 4.50427 2.67509 3.86282 2.8654 3.24003C2.89069 3.15688 2.93685 3.13159 3.01936 3.1591C3.69875 3.38419 4.39963 3.48314 5.11158 3.51475C5.22855 3.52013 5.24815 3.56755 5.26427 3.67757C5.3275 4.10562 5.19693 4.40817 4.80871 4.63863C4.56624 4.78247 4.38572 5.02938 4.17011 5.22191C4.11345 5.27202 4.04243 5.30299 3.96715 5.31043C3.75692 5.32181 3.54605 5.31454 3.33487 5.31454L3.3355 5.31991Z" fill="white"/>
<path d="M5.24997 0.155504C5.25282 0.196602 5.25851 0.2377 5.25851 0.278798C5.25851 1.14692 5.25693 2.01535 5.2642 2.88379C5.2642 3.03269 5.22026 3.07094 5.07452 3.06557C4.43771 3.04219 3.80648 2.93787 3.19601 2.75512C3.07999 2.72035 3.05501 2.67419 3.10117 2.56544C3.45683 1.72545 3.92598 0.967351 4.67049 0.414106C4.83457 0.292392 5.02709 0.209247 5.20635 0.108398L5.24997 0.155504Z" fill="white"/>
<path d="M5.7094 0.0996094C5.88233 0.187496 6.03218 0.246614 6.16369 0.333553C6.73464 0.711024 7.13835 1.23993 7.47125 1.82605C7.60339 2.05841 7.70835 2.30595 7.8307 2.544C7.88634 2.65212 7.87749 2.70808 7.74692 2.74886C7.14626 2.93696 6.52852 3.02959 5.90066 3.06057C5.71952 3.06943 5.70213 3.05109 5.70213 2.87342C5.70213 2.01584 5.70129 1.15805 5.6996 0.300042C5.69928 0.24946 5.70403 0.199193 5.7094 0.0996094Z" fill="white"/>
<path d="M6.5674 0C6.69797 0.0290849 6.83106 0.0499497 6.95878 0.0885188C7.88628 0.361481 8.72796 0.868488 9.40286 1.56078C9.62669 1.78967 9.63459 1.79694 9.36745 1.96291C9.0687 2.14849 8.75635 2.31225 8.45317 2.49118C8.33525 2.56105 8.2872 2.53291 8.2363 2.40677C7.92965 1.64804 7.52088 0.954742 6.92685 0.383478C6.80451 0.265558 6.67394 0.155857 6.54749 0.0423626L6.5674 0Z" fill="white"/>
<path d="M4.34582 0.0660826C4.31754 0.100716 4.28679 0.133258 4.25382 0.163454C3.6326 0.654103 3.21277 1.29745 2.86628 1.99706C2.7942 2.14281 2.72623 2.29107 2.66395 2.44124C2.62918 2.52533 2.58144 2.54335 2.50588 2.50036C2.15455 2.29993 1.80331 2.0997 1.45219 1.89969C1.33806 1.83425 1.33047 1.77134 1.42848 1.66986C2.10091 0.971823 2.87513 0.436915 3.81217 0.157447C3.98036 0.107181 4.14918 0.0581789 4.318 0.00854492C4.32685 0.0265649 4.33633 0.0461658 4.34582 0.0660826Z" fill="white"/>
<path d="M16.7426 16.1607C16.7408 16.3485 16.6971 16.5179 16.5501 16.6558C16.3468 16.8454 16.1515 17.0446 15.9574 17.2441C15.6071 17.6048 15.0067 17.5558 14.6451 17.1047C14.5777 17.0203 14.6416 16.9823 14.6884 16.9362C14.9916 16.6377 15.2963 16.3409 15.5992 16.0421C15.7863 15.8578 15.9785 15.6767 16.154 15.4832C16.2558 15.3722 16.32 15.3846 16.4189 15.4876C16.6035 15.6786 16.7626 15.8743 16.7426 16.1607Z" fill="white"/>
<path d="M10.7218 3.74782C10.4338 3.65772 10.1939 3.55814 9.9441 3.5104C9.54292 3.432 9.13605 3.38236 8.73076 3.32894C8.57964 3.30902 8.4437 3.15537 8.47784 3.00805C8.48575 2.97644 8.52558 2.94261 8.55846 2.92301C8.97387 2.67737 9.39149 2.43552 9.80595 2.18862C9.87708 2.14626 9.91849 2.1529 9.95769 2.22498C10.1733 2.6211 10.3933 3.01532 10.6048 3.41303C10.6545 3.50661 10.6766 3.61473 10.7218 3.74782Z" fill="white"/>
<path d="M2.64728 8.43726C2.67194 8.52799 2.71335 8.60607 2.7105 8.68163C2.68352 9.20803 2.72228 9.73573 2.8259 10.2525C2.83117 10.2839 2.83255 10.3157 2.83001 10.3474C2.82423 10.3675 2.81572 10.3868 2.80471 10.4046C2.76251 10.3875 2.72134 10.368 2.68142 10.3461C2.2227 10.0616 1.79812 9.73722 1.42698 9.34268C1.33688 9.24784 1.34225 9.19473 1.445 9.12138C1.81816 8.84793 2.22158 8.61837 2.64728 8.43726Z" fill="white"/>
<path d="M3.69362 5.75753C3.52227 6.07968 3.35251 6.36294 3.21941 6.66201C3.0879 6.95444 2.99274 7.26267 2.86818 7.60221C2.84313 7.55369 2.82065 7.50388 2.80084 7.45299C2.64088 6.94717 2.58808 6.42427 2.55647 5.89885C2.55394 5.85396 2.6197 5.7648 2.657 5.76386C2.99053 5.75374 3.32722 5.75753 3.69362 5.75753Z" fill="white"/>
<path d="M5.70618 3.98325C5.70618 3.84605 5.69764 3.71674 5.7125 3.59029C5.71629 3.55867 5.79343 3.51821 5.83895 3.51189C6.35837 3.4436 6.87969 3.38828 7.39815 3.31367C7.57772 3.28774 7.75034 3.21313 7.92864 3.17204C7.96594 3.1635 8.01494 3.20523 8.05825 3.22357C8.03233 3.25897 8.00957 3.32189 7.97985 3.32536C7.21696 3.40869 6.47523 3.62831 5.78995 3.97377C5.76255 3.98052 5.73439 3.98371 5.70618 3.98325Z" fill="white"/>
<path d="M12.4482 9.05678C12.5025 11.2154 10.6674 13.0038 8.5214 13.0231C6.30842 13.043 4.4707 11.2141 4.5001 9.01189C4.52824 6.89028 6.26511 5.18028 8.34974 5.12337C10.7179 5.06014 12.4577 6.9456 12.4482 9.05678ZM4.94744 9.12539C5.00055 11.1854 6.72636 12.6235 8.56598 12.5675C10.6354 12.5043 12.1222 10.7655 11.9993 8.84876C11.8763 6.93201 10.2301 5.48598 8.27608 5.59094C6.27333 5.69843 4.89781 7.40242 4.94744 9.12539Z" fill="white"/>
<path d="M8.90239 5.86914C9.65101 6.0035 10.2789 6.28012 10.7799 6.80555C10.7995 6.83121 10.8134 6.86077 10.8205 6.89225C10.8276 6.92372 10.8279 6.95636 10.8214 6.98796C10.6491 7.62808 10.3638 8.23225 9.97885 8.77194C9.92163 8.8535 9.88085 8.85919 9.78916 8.80355C9.38872 8.55591 8.9828 8.3168 8.5714 8.08623C8.47655 8.03343 8.46106 7.99139 8.48161 7.89244C8.59142 7.36364 8.69585 6.83368 8.7949 6.30257C8.81451 6.20014 8.80249 6.0917 8.82178 5.98896C8.83253 5.9409 8.88153 5.90044 8.90239 5.86914Z" fill="white"/>
<path d="M5.72545 10.7942C5.72071 10.731 5.71533 10.6892 5.71533 10.6484C5.71533 9.80088 5.71881 8.95299 5.71533 8.1051C5.71533 7.97232 5.75864 7.93122 5.89047 7.93533C6.52222 7.95351 7.14869 8.05622 7.75317 8.24072C7.84801 8.26949 7.8831 8.30838 7.83916 8.41112C7.51828 9.15974 7.10002 9.84292 6.48418 10.3854C6.32106 10.5293 6.11746 10.6288 5.92778 10.7401C5.8734 10.7721 5.80227 10.7746 5.72545 10.7942Z" fill="white"/>
<path d="M8.4231 5.98752C8.30771 6.56416 8.19106 7.14048 8.07819 7.71744C8.05353 7.84389 7.98999 7.86792 7.87618 7.82619C7.22683 7.58719 6.54492 7.52712 5.86047 7.48634C5.69893 7.47654 5.66668 7.42311 5.75552 7.29096C6.07411 6.80964 6.51875 6.42504 7.04094 6.1791C7.42505 5.99795 7.82402 5.87908 8.25049 5.85632C8.34881 5.85095 8.39086 5.88035 8.37948 5.97804L8.4231 5.98752Z" fill="white"/>
<path d="M6.51172 10.9517C6.53898 10.9201 6.568 10.89 6.59866 10.8616C7.37257 10.2657 7.86701 9.46903 8.23405 8.58194C8.27831 8.47509 8.32478 8.43715 8.43195 8.49974C8.78497 8.70734 9.13895 8.91336 9.49387 9.1178C9.61021 9.18545 9.59661 9.25058 9.50999 9.3391C8.84799 10.0169 8.08325 10.529 7.17055 10.8041C6.9951 10.8569 6.81774 10.9037 6.64039 10.9505C6.61067 10.9584 6.57842 10.9517 6.51172 10.9517Z" fill="white"/>
<path d="M5.24459 8.91504V9.42086H5.20886V8.91504H5.24459Z" fill="white"/>
</svg>
