<svg width="19" height="19" viewBox="0 0 19 19" fill="none" xmlns="http://www.w3.org/2000/svg">
<path d="M12.0515 9.33591C12.2216 8.76187 12.4072 8.25717 12.5162 7.73639C12.7878 6.46071 12.7278 5.20182 12.1923 3.99298C11.5582 2.56038 10.1907 1.88697 8.71664 2.00278C7.67329 2.08427 6.82223 2.535 6.21459 3.39677C5.73956 4.07197 5.53976 4.84403 5.46934 5.65934C5.31565 7.43972 5.79854 9.05497 6.73931 10.5458C6.90051 10.8017 7.07851 11.0566 7.29297 11.2668C7.75442 11.7182 7.7319 12.2297 7.52352 12.7641C7.33694 13.2416 6.96342 13.5626 6.51484 13.7831C5.60195 14.2321 4.67905 14.6599 3.76259 15.1013C3.12564 15.408 2.45617 15.6557 1.90143 16.1132C1.381 16.5422 1.00498 17.0644 0.883812 17.7438C0.877379 17.7796 0.87023 17.8153 0.867013 17.8511C0.868202 17.8725 0.871799 17.8937 0.877736 17.9143H17.3773C17.3326 17.5026 17.1628 17.1534 16.9509 16.8199C16.5548 16.2019 15.9604 15.8305 15.3188 15.5306C14.4252 15.1128 13.5138 14.7278 12.618 14.3118C12.1734 14.1115 11.7412 13.8847 11.3238 13.6326C10.6804 13.2341 10.3708 12.645 10.4799 11.8791C10.5027 11.7175 10.5971 11.5613 10.6793 11.4144C10.7336 11.3179 10.8427 11.2521 10.8966 11.1556C11.021 10.9319 11.2022 10.8418 11.4542 10.8168C11.7005 10.7925 11.9414 10.7149 12.2131 10.6545C12.189 10.7121 12.1606 10.7678 12.128 10.8211C11.9067 11.1234 11.6934 11.4323 11.4564 11.7214C11.194 12.0431 11.1912 12.3902 11.48 12.6951C11.7859 13.0168 12.1762 13.2134 12.5709 13.3949C13.5113 13.8274 14.4653 14.2324 15.3992 14.6788C15.8857 14.9115 16.3729 15.1657 16.804 15.4856C17.6911 16.144 18.11 17.0822 18.2398 18.162C18.2466 18.221 18.2569 18.28 18.2601 18.3408C18.2741 18.5799 18.1311 18.7393 17.8916 18.7522C17.8262 18.7554 17.7605 18.7522 17.695 18.7522H0.468473C0.098171 18.7522 -0.0240717 18.6213 0.00380822 18.2496C0.116043 16.7269 0.86737 15.625 2.22741 14.9548C3.20893 14.4708 4.21582 14.0394 5.2027 13.5661C5.6246 13.3602 6.03474 13.131 6.4312 12.8795C6.69749 12.713 6.88335 12.4642 6.8544 12.1235C6.84487 12.0125 6.80257 11.9067 6.73287 11.8197C5.18018 10.0261 4.51678 7.94263 4.68906 5.58463C4.75447 4.69927 4.9675 3.84857 5.44933 3.09975C6.2532 1.85158 7.42737 1.22822 8.90751 1.1864C10.1821 1.15065 11.2812 1.57707 12.1755 2.48996C12.7639 3.09045 13.0634 3.84643 13.2621 4.64887C13.5674 5.88381 13.5227 7.11159 13.2003 8.33652C13.1538 8.51274 13.0745 8.65142 12.9211 8.75222C12.6384 8.93594 12.3614 9.1261 12.0515 9.33591Z" fill="white"/>
<path d="M14.8691 6.76921C14.8691 7.0909 14.8691 7.41259 14.8691 7.73428C14.8663 8.15963 14.7262 8.30975 14.3098 8.35408C14.2829 8.35899 14.2574 8.36973 14.2351 8.38554C14.2128 8.40134 14.1943 8.42184 14.1807 8.44558C13.6617 9.58937 12.6974 10.1405 11.5357 10.4165C11.2598 10.4822 10.9695 10.488 10.6879 10.5312C10.6188 10.5449 10.5568 10.5829 10.5134 10.6384C10.3505 10.8615 9.98301 10.938 9.70636 10.795C9.46616 10.6706 9.35607 10.3661 9.45437 10.1023C9.58769 9.74271 10.1968 9.64835 10.4677 9.95503C10.4955 9.99184 10.5327 10.0205 10.5754 10.0381C10.6181 10.0557 10.6647 10.0616 10.7104 10.0551C11.6529 9.98362 12.5015 9.68516 13.2017 9.02999C13.3155 8.92493 13.4173 8.80756 13.5052 8.68006C13.6703 8.43557 13.7868 8.19538 13.7665 7.8626C13.7207 7.12093 13.7504 6.37425 13.7497 5.62971C13.7497 5.46636 13.8133 5.33447 13.9673 5.27227C14.0649 5.23331 14.0803 5.17684 14.0792 5.08319C14.0513 2.60367 12.3138 0.882261 10.0924 0.565573C9.00757 0.410804 7.90918 0.412592 6.87011 0.8433C5.16265 1.55102 4.23546 2.84994 4.03852 4.68C4.02958 4.76293 4.02458 4.84621 4.02064 4.93021C4.01385 5.08176 3.98168 5.22474 4.20151 5.2905C4.28657 5.31588 4.37522 5.49639 4.37701 5.60755C4.38844 6.38747 4.38165 7.16811 4.37164 7.94803C4.36879 8.19824 4.21723 8.33835 3.96596 8.35372C3.46555 8.38446 3.25287 8.18358 3.25109 7.67709C3.25109 7.05158 3.25395 6.42607 3.24894 5.80092C3.24618 5.71191 3.26358 5.62342 3.29986 5.54209C3.33613 5.46075 3.39033 5.38867 3.4584 5.33125C3.51878 5.26422 3.55181 5.17698 3.55097 5.08677C3.54275 4.07594 3.79832 3.13839 4.35556 2.29877C5.23521 0.971262 6.48873 0.225653 8.06395 0.060518C9.16627 -0.0560058 10.2682 -0.033487 11.3202 0.391503C13.1073 1.11281 14.1679 2.42209 14.4799 4.3265C14.5239 4.59565 14.5228 4.87159 14.5514 5.14288C14.5595 5.20888 14.5919 5.26951 14.6422 5.31302C14.8066 5.43384 14.8749 5.58932 14.8724 5.78948C14.8677 6.11689 14.8724 6.44466 14.8724 6.77207L14.8691 6.76921Z" fill="white"/>
</svg>
