<svg width="20" height="20" viewBox="0 0 20 20" fill="none" xmlns="http://www.w3.org/2000/svg">
<path d="M13.6629 18.122C13.6629 18.3479 13.6677 18.5743 13.6629 18.8006C13.6565 19.0401 13.5284 19.2026 13.3037 19.274C12.8792 19.4071 12.4534 19.5356 12.0263 19.6596C11.7357 19.7426 11.527 19.6596 11.3629 19.3997C11.1497 19.0628 10.9482 18.7188 10.7286 18.3862C10.7025 18.3535 10.6698 18.3267 10.6327 18.3073C10.5956 18.288 10.5548 18.2767 10.5131 18.2741C10.1937 18.2705 9.87439 18.2801 9.55505 18.302C9.51305 18.3063 9.47238 18.3192 9.43552 18.3398C9.39866 18.3604 9.36639 18.3883 9.3407 18.4218C9.1447 18.7379 8.96547 19.0644 8.78185 19.3874C8.58626 19.7283 8.40464 19.8133 8.02343 19.7275C7.63463 19.64 7.24704 19.5474 6.85984 19.4524C6.57443 19.3826 6.43153 19.2077 6.41476 18.9163C6.39121 18.5048 6.37485 18.0925 6.34251 17.6813C6.33738 17.6428 6.32443 17.6058 6.30445 17.5725C6.28447 17.5392 6.2579 17.5104 6.22635 17.4877C5.95332 17.3241 5.66751 17.1807 5.39328 17.0207C5.29588 16.9636 5.22323 16.958 5.12384 17.0207C4.80889 17.2203 4.48516 17.4047 4.16583 17.5951C3.82813 17.7947 3.60698 17.7711 3.32756 17.5001C3.05639 17.234 2.78549 16.9689 2.51485 16.7049C2.2985 16.4926 2.2482 16.2962 2.37953 16.0208C2.55397 15.6551 2.74557 15.2975 2.93837 14.943C2.99545 14.8392 2.98707 14.7705 2.9236 14.6743C2.76393 14.4348 2.61624 14.1925 2.47813 13.9427C2.42064 13.8385 2.35837 13.8073 2.24301 13.8109C1.8642 13.8229 1.48459 13.8277 1.10577 13.8277C0.746516 13.8277 0.571279 13.6976 0.467095 13.3487C0.355726 12.9727 0.25234 12.5947 0.147757 12.2166C0.0595401 11.8973 0.145362 11.6873 0.427178 11.5057C0.746516 11.3009 1.06146 11.091 1.3816 10.8886C1.47501 10.8295 1.51532 10.7688 1.50614 10.6491C1.48179 10.3377 1.48538 10.0244 1.46223 9.71303C1.45679 9.67445 1.44355 9.63739 1.4233 9.6041C1.40305 9.57082 1.37623 9.54201 1.34448 9.51943C0.988015 9.30029 0.622773 9.09591 0.263518 8.88076C0.0347924 8.74424 -0.0370592 8.53388 0.0172283 8.282C0.103716 7.87937 0.193529 7.4774 0.28667 7.0761C0.358121 6.76874 0.509807 6.63302 0.823557 6.60707C1.22752 6.57314 1.63228 6.54241 2.03744 6.52724C2.17236 6.52245 2.23463 6.47415 2.29131 6.35919C2.42543 6.08496 2.56874 5.81472 2.72282 5.55126C2.7791 5.45506 2.77591 5.39159 2.71923 5.30138C2.50447 4.95809 2.29251 4.61281 2.09173 4.26114C1.92048 3.96096 1.95321 3.75259 2.18793 3.50271C2.45191 3.22116 2.71643 2.94054 2.98148 2.66086C3.25412 2.37425 3.42895 2.34152 3.77703 2.51636C4.11553 2.6864 4.45004 2.86443 4.79053 3.02969C4.82059 3.04199 4.85291 3.04781 4.88537 3.04678C4.91784 3.04575 4.94972 3.03788 4.97894 3.0237C5.27592 2.84807 5.56971 2.66445 5.85712 2.47325C5.88817 2.44898 5.91385 2.41853 5.93254 2.38384C5.95123 2.34914 5.96252 2.31094 5.96569 2.27166C5.97208 1.88606 5.95971 1.50006 5.95931 1.11406C5.95891 0.728064 6.0591 0.586757 6.42434 0.467006C6.80356 0.34446 7.18277 0.224309 7.56518 0.107751C7.89649 0.00835665 8.11045 0.0909858 8.29606 0.383978C8.49844 0.703316 8.70082 1.02465 8.89482 1.34957C8.95669 1.45256 9.02176 1.49567 9.1475 1.48849C9.45286 1.47092 9.75943 1.4801 10.0656 1.46094C10.1076 1.45639 10.1483 1.44323 10.185 1.42229C10.2218 1.40134 10.2538 1.37306 10.2792 1.3392C10.4787 1.01986 10.6636 0.686949 10.8576 0.362023C11.0631 0.0175374 11.2296 -0.0547125 11.6212 0.0355005C12.0128 0.125713 12.3964 0.220716 12.7832 0.316916C13.0742 0.389566 13.2071 0.535663 13.2222 0.830651C13.2434 1.22982 13.2558 1.629 13.2558 2.02817C13.2558 2.16828 13.2993 2.24133 13.423 2.3044C13.6949 2.44291 13.9603 2.59459 14.2214 2.75267C14.314 2.80895 14.381 2.81214 14.4725 2.75706C14.8086 2.55547 15.151 2.36188 15.4899 2.16708C15.7925 1.99344 16.03 2.02458 16.2831 2.26687C16.5519 2.52421 16.8208 2.78167 17.0898 3.03927C17.3293 3.268 17.3716 3.48794 17.2212 3.7949C17.0491 4.14698 16.8591 4.49026 16.6891 4.84313C16.6745 4.87953 16.6675 4.91852 16.6686 4.95771C16.6696 4.9969 16.6786 5.03547 16.695 5.07106C16.8348 5.33491 16.9968 5.58679 17.1397 5.84945C17.198 5.95682 17.2655 5.99714 17.3892 5.99474C17.7884 5.9865 18.1876 5.9865 18.5867 5.99474C18.916 6.00073 19.0657 6.1145 19.1683 6.43383C19.2845 6.80067 19.3931 7.17071 19.4964 7.54154C19.5815 7.84571 19.4936 8.06326 19.225 8.24488C18.8945 8.46802 18.5648 8.69275 18.2299 8.9095C18.1341 8.97177 18.1025 9.03644 18.1101 9.153C18.1321 9.45078 18.1265 9.75175 18.15 10.0491C18.1552 10.0912 18.1689 10.1317 18.1903 10.1682C18.2117 10.2047 18.2404 10.2365 18.2746 10.2615C18.6031 10.4611 18.944 10.6431 19.2761 10.8383C19.5886 11.0219 19.6697 11.2023 19.5978 11.5528C19.516 11.9496 19.4274 12.3452 19.3364 12.74C19.2761 13.0006 19.124 13.1295 18.8438 13.1531C18.4263 13.1886 18.0083 13.2202 17.59 13.2429C17.4531 13.2505 17.3784 13.302 17.3194 13.4273C17.1996 13.6852 17.0627 13.9379 16.9174 14.1834C16.8547 14.2883 16.8479 14.359 16.9174 14.4656C17.1325 14.8009 17.3385 15.1442 17.5389 15.4875C17.7097 15.7816 17.6782 15.9952 17.4475 16.2459C17.196 16.5205 16.9448 16.7954 16.6938 17.0706C16.4144 17.3739 16.2105 17.4199 15.8444 17.2402C15.5168 17.0806 15.1924 16.9125 14.8712 16.7361C14.7654 16.6782 14.6916 16.6726 14.587 16.7457C14.3264 16.9285 14.0561 17.0985 13.7839 17.2646C13.6873 17.3233 13.6438 17.3843 13.6498 17.5013C13.6601 17.7069 13.6526 17.9132 13.6526 18.1196L13.6629 18.122ZM9.85443 3.91865C6.70456 3.88432 3.96185 6.42984 3.90676 9.75974C3.84809 13.2218 6.60756 15.8691 9.83567 15.8715C12.9456 15.8743 15.7434 13.4102 15.7905 9.98248C15.8332 6.60668 13.1823 3.92623 9.85443 3.91865Z" fill="#DEFFFF"/>
<circle cx="10.0467" cy="10.0466" r="1.33956" fill="#DEFFFF"/>
<line x1="10.7944" y1="9.24451" x2="12.5936" y2="7.95935" stroke="#DEFFFF" stroke-width="0.669782" stroke-linecap="round"/>
</svg>
