<svg width="16" height="20" viewBox="0 0 16 20" fill="none" xmlns="http://www.w3.org/2000/svg">
<path d="M14.6393 8.17374C14.1457 7.68025 13.4894 7.40861 12.7916 7.40861H12.6025V4.81134C12.6025 2.1583 10.4442 0 7.79133 0H7.61345C4.96056 0 2.8021 2.1583 2.8021 4.81134V7.40845H2.61303C1.91518 7.40845 1.25893 7.68025 0.765284 8.17374C0.271796 8.66738 0 9.32363 0 10.0216V16.5529C0 17.2509 0.271796 17.9072 0.765284 18.4005C1.25877 18.8942 1.91502 19.166 2.61303 19.166H12.7916C13.4896 19.166 14.1459 18.8942 14.6395 18.4005C15.133 17.907 15.4048 17.2508 15.4048 16.5529V10.0216C15.4048 9.32379 15.133 8.66754 14.6393 8.17374ZM4.06261 4.81134C4.06261 2.85347 5.65541 1.2605 7.61345 1.2605H7.79133C9.74921 1.2605 11.342 2.85347 11.342 4.81134V7.40845H4.06261V4.81134ZM14.1443 16.5529C14.1443 16.9089 13.9998 17.2574 13.7482 17.5092C13.4926 17.7648 13.1529 17.9055 12.7916 17.9055H2.61303C2.25173 17.9055 1.91218 17.7648 1.65646 17.509C1.40105 17.2538 1.26035 16.9142 1.26035 16.5529V10.0216C1.26035 9.66034 1.40105 9.32048 1.65646 9.06507C1.91203 8.80966 2.25158 8.66896 2.61287 8.66896H12.7914C13.1527 8.66896 13.4924 8.80966 13.7478 9.06491C14.0034 9.32064 14.1441 9.66034 14.1441 10.0216L14.1443 16.5529Z" fill="white"/>
<path d="M7.70227 11.5469C7.35422 11.5469 7.07202 11.8291 7.07202 12.1771V14.3975C7.07202 14.7456 7.35422 15.0278 7.70227 15.0278C8.05033 15.0278 8.33253 14.7456 8.33253 14.3975V12.1771C8.33253 11.8291 8.05033 11.5469 7.70227 11.5469Z" fill="white"/>
<circle cx="7.80702" cy="11.7106" r="1.30117" fill="white"/>
</svg>
