<svg width="27" height="31" viewBox="0 0 27 31" fill="none" xmlns="http://www.w3.org/2000/svg">
<path d="M12.976 0C15.7367 0.0111353 17.9817 0.65181 19.9967 2.01548C22.1319 3.45988 23.6515 5.39583 24.4687 7.85274C24.9794 9.38583 25.1186 10.9619 24.8398 12.5602C24.6012 13.9226 24.1474 15.2215 23.6145 16.4937C22.9683 18.0467 22.1975 19.5449 21.3099 20.9737C20.54 22.2065 19.7271 23.4166 18.884 24.601C17.5068 26.5325 15.971 28.3392 14.4037 30.1173C14.2764 30.2612 14.1563 30.412 14.0219 30.5488C13.6409 30.9361 13.102 30.925 12.7493 30.5126C11.3665 28.9067 9.95911 27.3223 8.66981 25.6373C6.8989 23.3236 5.2986 20.9049 4.00174 18.2901C3.22944 16.7327 2.57683 15.1268 2.13261 13.4442C1.7912 12.174 1.72048 10.8462 1.92502 9.54689C2.43406 6.33159 4.12463 3.87586 6.76647 2.04133C8.0935 1.11997 9.60482 0.497831 11.1959 0.217935C11.8907 0.0926629 12.5994 0.044541 12.976 0ZM13.423 28.5846C13.4535 28.5304 13.4872 28.4781 13.524 28.4279C14.4251 27.343 15.3458 26.2732 16.2283 25.1712C17.9009 23.0778 19.4229 20.8802 20.7038 18.5211C21.6002 16.8703 22.3666 15.1662 22.8792 13.3536C23.214 12.1696 23.3166 10.9698 23.1305 9.75409C22.9415 8.52523 22.4888 7.35183 21.8034 6.31449C20.5412 4.3857 18.8096 3.04231 16.6244 2.31534C14.3575 1.55973 12.0792 1.57723 9.84855 2.43982C6.87663 3.58913 4.83252 5.65591 3.89875 8.73958C3.44618 10.2337 3.45333 11.7409 3.88244 13.247C4.31154 14.753 4.91643 16.1803 5.60482 17.5782C6.49167 19.3765 7.56066 21.0655 8.70997 22.7052C10.1186 24.7147 11.6894 26.595 13.2874 28.4538C13.314 28.4876 13.351 28.515 13.423 28.5846Z" fill="#2681C2"/>
<path d="M9.52333 10.7637C9.47719 8.67941 11.2815 6.97055 13.3248 6.94589C15.4779 6.91845 17.2619 8.5943 17.2739 10.7207C17.2777 11.2291 17.1807 11.7331 16.9883 12.2037C16.796 12.6742 16.5122 13.102 16.1535 13.4621C15.7947 13.8222 15.368 14.1075 14.8982 14.3016C14.4283 14.4957 13.9246 14.5946 13.4163 14.5926C11.2401 14.5879 9.52532 12.9025 9.52333 10.7637Z" fill="#2681C2"/>
</svg>
