<svg width="22" height="22" viewBox="0 0 22 22" fill="none" xmlns="http://www.w3.org/2000/svg">
<path d="M6.14244 2.0009C6.14244 1.74414 6.14758 1.48738 6.14244 1.23102C6.13652 1.02285 6.23014 0.892095 6.4229 0.830867C7.1367 0.604128 7.85049 0.3766 8.56626 0.155786C8.7851 0.0882384 8.89926 0.14591 9.04028 0.366329C9.29743 0.764109 9.55617 1.16071 9.80621 1.56283C9.86546 1.65803 9.92472 1.69753 10.0405 1.69714C10.7286 1.69714 10.7262 1.69714 11.0442 1.08763C11.199 0.790576 11.3685 0.50103 11.5241 0.203978C11.6146 0.0317512 11.7509 -0.0271063 11.9326 0.0112102C12.6717 0.167241 13.4111 0.322877 14.149 0.485229C14.4105 0.542901 14.4875 0.64679 14.5014 0.932781C14.5235 1.39969 14.5436 1.86699 14.5567 2.3343C14.5598 2.46189 14.6037 2.54049 14.7206 2.59501C14.8815 2.66946 15.0378 2.75349 15.1887 2.84663C15.2823 2.9047 15.3499 2.89364 15.4383 2.83755C15.8436 2.58039 16.2533 2.32995 16.6629 2.07793C16.9042 1.92862 17.05 1.94205 17.2649 2.13955C17.7784 2.61147 18.2909 3.08482 18.8023 3.55963C19.0113 3.75319 19.0393 3.89816 18.9117 4.15729C18.7008 4.58825 18.4807 5.01448 18.2753 5.44781C18.2614 5.48471 18.255 5.52402 18.2565 5.56344C18.258 5.60286 18.2673 5.64157 18.284 5.67731C18.3832 5.86929 18.463 6.12052 18.6273 6.21651C18.7916 6.3125 19.0421 6.24574 19.255 6.23981C19.5907 6.23033 19.9265 6.20821 20.2615 6.19755C20.5107 6.18965 20.6032 6.25996 20.6806 6.49736C20.901 7.17205 21.1209 7.847 21.3403 8.52221C21.4414 8.83388 21.3995 8.93935 21.1281 9.11474C20.7367 9.36913 20.3444 9.62312 19.9609 9.88897C19.9 9.93123 19.8562 10.0324 19.8495 10.1102C19.8368 10.2682 19.8653 10.4262 19.8574 10.5842C19.8495 10.7422 19.9241 10.8188 20.0549 10.8868C20.4629 11.0997 20.8666 11.3213 21.2696 11.5429C21.5259 11.6843 21.5702 11.7886 21.5066 12.0754C21.3588 12.7566 21.2104 13.4375 21.0614 14.118C20.9915 14.4364 20.9291 14.4909 20.5953 14.513C20.1351 14.5411 19.6753 14.5675 19.2151 14.5861C19.0966 14.5908 19.0377 14.6319 18.9666 14.7295C18.6834 15.1166 18.6652 15.4634 19.0026 15.8415C19.2056 16.069 19.3391 16.3581 19.5046 16.6192C19.6543 16.8562 19.6516 16.9996 19.4699 17.2078C18.998 17.7482 18.5239 18.2861 18.0478 18.8214C17.8851 19.0043 17.7223 19.0316 17.4782 18.9135C17.0642 18.7131 16.6522 18.5083 16.2422 18.2992C16.1324 18.2431 16.0447 18.2254 15.94 18.315C15.8402 18.4011 15.7288 18.4727 15.609 18.5276C15.4194 18.6125 15.3645 18.7428 15.3767 18.9455C15.4036 19.3986 15.4091 19.854 15.4202 20.3075C15.4265 20.5623 15.3526 20.6729 15.1168 20.7503C14.4361 20.9734 13.7545 21.1942 13.0722 21.4128C12.8182 21.4941 12.7036 21.4523 12.5401 21.2093C12.2794 20.8222 12.0222 20.4323 11.7722 20.0381C11.6995 19.9243 11.6209 19.8651 11.4842 19.8939C11.4325 19.9064 11.379 19.9096 11.3262 19.9034C10.9411 19.8434 10.7337 20.0262 10.5883 20.3719C10.443 20.7175 10.2427 21.0371 10.0649 21.365C9.94328 21.5901 9.84887 21.6348 9.60238 21.5822C8.88899 21.4305 8.17559 21.2792 7.46298 21.124C7.18133 21.0628 7.09285 20.9447 7.07902 20.6618C7.05611 20.1949 7.03123 19.728 6.99568 19.2619C6.99015 19.1928 6.93247 19.1161 6.87717 19.0644C6.81634 19.0083 6.72272 18.9881 6.65794 18.9344C6.37471 18.6974 6.12269 18.7507 5.84144 18.9613C5.54202 19.1853 5.20942 19.3646 4.89103 19.5625C4.68326 19.6917 4.53987 19.6897 4.3546 19.523C3.79869 19.019 3.24711 18.5104 2.69988 17.9974C2.53595 17.8442 2.52213 17.6759 2.63234 17.4579C2.84288 17.0411 3.06251 16.6283 3.26436 16.208C3.29794 16.1377 3.28174 16.0232 3.25014 15.9449C3.07712 15.5164 2.78916 15.3129 2.29578 15.4034C1.96239 15.465 1.6132 15.4358 1.27151 15.4543C1.05346 15.4666 0.927054 15.3698 0.861877 15.1652C0.637113 14.4577 0.404055 13.7526 0.181661 13.0443C0.0979177 12.7781 0.14216 12.6817 0.374429 12.5328C0.766679 12.2792 1.15735 12.0236 1.55118 11.7728C1.66139 11.7025 1.72973 11.6266 1.69062 11.4836C1.66775 11.4075 1.66195 11.3273 1.67363 11.2486C1.73368 10.9326 1.57132 10.7789 1.30666 10.6506C0.940485 10.4736 0.592082 10.2599 0.236173 10.0608C0.026025 9.94229 -0.0336224 9.82734 0.0169396 9.58678C0.171391 8.86035 0.332952 8.13589 0.490958 7.41024C0.534015 7.20918 0.644619 7.10727 0.858717 7.09976C1.34538 7.08238 1.83164 7.04723 2.3183 7.02906C2.44786 7.02431 2.52489 6.98284 2.5715 6.85999C2.61003 6.74815 2.66315 6.6419 2.72951 6.54398C2.86342 6.36187 2.833 6.21098 2.71252 6.03046C2.48184 5.6864 2.27485 5.32693 2.05759 4.97379C1.85653 4.64632 1.87075 4.53927 2.1283 4.26276C2.57756 3.78242 3.02419 3.29945 3.46819 2.81385C3.7368 2.51995 3.84898 2.50139 4.20252 2.68823C4.58016 2.88811 4.96372 3.07653 5.34135 3.27641C5.45986 3.33961 5.54676 3.30643 5.66447 3.25508C6.09899 3.06586 6.26174 2.75459 6.17365 2.29479C6.15548 2.1996 6.17089 2.09729 6.17089 1.99893L6.14244 2.0009ZM1.32326 14.9345C1.85534 14.9132 2.3815 14.895 2.90687 14.8681C3.09332 14.8579 3.21814 14.9187 3.31374 15.0803C3.44584 15.3154 3.59296 15.5418 3.75418 15.7581C3.9031 15.9481 3.90468 16.1168 3.79368 16.3194C3.58116 16.7144 3.38208 17.113 3.17469 17.5092C3.12413 17.6056 3.10715 17.6799 3.20432 17.7675C3.652 18.1744 4.09613 18.5859 4.53671 19.002C4.62835 19.0889 4.69471 19.081 4.79189 19.019C5.20073 18.7559 5.61707 18.5054 6.02631 18.24C6.17128 18.1468 6.30282 18.1479 6.44977 18.2301C6.70179 18.3711 6.95222 18.5193 7.2157 18.6362C7.42782 18.7298 7.50564 18.8732 7.51433 19.094C7.53171 19.5609 7.56963 20.027 7.59333 20.4939C7.59807 20.5963 7.62652 20.6464 7.73159 20.6685C8.31674 20.7926 8.90084 20.9206 9.48388 21.0525C9.60001 21.0786 9.66164 21.0434 9.71615 20.9375C9.9421 20.4991 10.1838 20.0685 10.4054 19.6285C10.4931 19.4547 10.6192 19.3998 10.8005 19.3986C11.0829 19.3986 11.3665 19.3907 11.6482 19.3678C11.8409 19.3524 11.9741 19.4096 12.0787 19.5751C12.3311 19.9753 12.6002 20.3652 12.849 20.7681C12.9249 20.8905 12.996 20.9024 13.1204 20.8613C13.6758 20.678 14.2351 20.5058 14.7889 20.3193C14.8411 20.3016 14.8972 20.1969 14.896 20.1333C14.8881 19.6395 14.8719 19.146 14.8474 18.6528C14.8383 18.4663 14.9019 18.3399 15.0643 18.2475C15.2586 18.1373 15.464 18.035 15.6303 17.892C15.9068 17.6498 16.1747 17.6407 16.4674 17.8398C16.4891 17.8545 16.5118 17.8677 16.5353 17.8793L17.6872 18.445L19.0638 16.8961C18.7687 16.4257 18.4855 15.9675 18.1948 15.5136C18.1542 15.4577 18.1313 15.391 18.129 15.322C18.1268 15.253 18.1453 15.1849 18.1821 15.1265C18.3235 14.8666 18.4728 14.6094 18.5917 14.3392C18.6767 14.1464 18.8031 14.0785 19.003 14.0734C19.4703 14.0607 19.9368 14.0303 20.4037 14.0145C20.5301 14.0102 20.5834 13.9651 20.6091 13.8371C20.7209 13.2766 20.8418 12.7177 20.9678 12.1599C20.9974 12.028 20.9678 11.9585 20.8453 11.8949C20.414 11.6697 19.9846 11.4406 19.5651 11.1945C19.473 11.1404 19.3774 11.0159 19.3676 10.9144C19.3281 10.5747 19.3308 10.231 19.3134 9.88739C19.3072 9.82535 19.3194 9.76285 19.3486 9.70774C19.3777 9.65263 19.4225 9.60738 19.4774 9.57769C19.8823 9.32014 20.2769 9.04561 20.6853 8.79398C20.8224 8.70985 20.8362 8.63124 20.7892 8.4918C20.6111 7.96248 20.4377 7.43158 20.2757 6.89712C20.233 6.7561 20.1706 6.71541 20.0264 6.7245C19.5603 6.75373 19.093 6.764 18.6265 6.78968C18.4428 6.79995 18.3133 6.74148 18.2196 6.57676C18.0897 6.34023 17.947 6.11092 17.7922 5.88983C17.6488 5.69232 17.6488 5.51417 17.761 5.3056C17.9728 4.91059 18.1655 4.50807 18.3761 4.11345C18.4412 3.99178 18.4243 3.91989 18.3208 3.83061C18.0838 3.62402 17.8558 3.40321 17.6248 3.18832L16.9161 2.53141C16.4567 2.81779 16.0143 3.08996 15.5766 3.36924C15.4237 3.46641 15.2839 3.48774 15.1176 3.39452C14.8411 3.23928 14.5598 3.09905 14.2802 2.95329C14.1383 2.87902 14.0755 2.76565 14.0692 2.6033C14.0503 2.11625 14.0163 1.62998 13.9989 1.14174C13.9946 1.02324 13.9626 0.970703 13.8409 0.944237C13.2494 0.820992 12.6593 0.691427 12.0704 0.555541C11.9436 0.526705 11.8947 0.583982 11.8441 0.681156C11.6288 1.09553 11.4009 1.50318 11.1931 1.92111C11.0987 2.11111 10.9715 2.19367 10.7586 2.19091C10.4948 2.18328 10.2308 2.19437 9.96856 2.22409C9.73155 2.2545 9.58224 2.17313 9.46057 1.9772C9.21527 1.58021 8.95693 1.19112 8.70649 0.797291C8.65751 0.718288 8.62156 0.665355 8.50898 0.703277C7.93463 0.892884 7.35817 1.07578 6.7796 1.25195C6.6611 1.28751 6.64767 1.34992 6.65241 1.45381C6.67413 1.94047 6.68559 2.42752 6.71087 2.91536C6.72035 3.10063 6.65636 3.23138 6.50033 3.32697C6.24357 3.48695 5.98681 3.64891 5.73834 3.81955C5.58863 3.92226 5.44485 3.91791 5.29316 3.8393C5.14147 3.7607 5.00282 3.68564 4.85667 3.6102C4.5375 3.44587 4.21793 3.28233 3.8952 3.11643L2.4613 4.66528C2.75163 5.13377 3.02893 5.58843 3.31453 6.03757C3.36277 6.10407 3.39011 6.18343 3.39306 6.26553C3.39602 6.34763 3.37445 6.42875 3.33112 6.49855C3.18812 6.76479 3.06014 7.03893 2.92623 7.30991C2.89956 7.37377 2.85438 7.42818 2.79651 7.46613C2.73864 7.50408 2.67072 7.52383 2.60153 7.52282C2.12119 7.541 1.64164 7.57576 1.1613 7.59156C1.0187 7.5963 0.951546 7.64133 0.92429 7.78393C0.809736 8.35091 0.689256 8.9171 0.562851 9.4825C0.53441 9.60851 0.566801 9.6721 0.677405 9.73017C1.0902 9.94822 1.49627 10.1789 1.90985 10.395C2.09116 10.4898 2.18913 10.6122 2.18636 10.8275C2.18399 11.104 2.19979 11.3805 2.2235 11.6571C2.24009 11.8494 2.17965 11.9786 2.01295 12.0837C1.56816 12.3637 1.13246 12.6572 0.682145 12.9527C0.857137 13.5034 1.02897 14.0469 1.20278 14.5904C1.23912 14.7006 1.28059 14.8109 1.32365 14.9345H1.32326Z" fill="#2873B4"/>
<path d="M17.8416 10.7899C17.8666 14.8179 14.5997 18.1623 10.5883 18.1491C6.577 18.136 3.33508 14.9315 3.31866 10.8127C3.30353 6.75142 6.53118 3.44036 10.5343 3.41932C14.5664 3.39564 17.8156 6.67424 17.8416 10.7899ZM10.5693 4.37917C7.05161 4.39189 4.22553 7.26533 4.25838 10.8382C4.29166 14.4189 7.14714 17.2086 10.6372 17.1853C14.0217 17.1625 16.9235 14.3549 16.9049 10.7163C16.8828 7.24296 14.0161 4.3669 10.5693 4.37917Z" fill="#A0D5FF"/>
<path d="M10.5123 14.5944C9.63294 14.5944 8.75356 14.5944 7.87419 14.5944C7.45364 14.5944 7.33104 14.4684 7.33609 14.0431C7.34268 13.5989 7.30932 13.1523 7.47692 12.7227C7.72443 12.0895 8.20861 11.7658 8.83128 11.6071C9.02017 11.5648 9.20635 11.5109 9.38878 11.4457C9.49575 11.4029 9.59035 11.3334 9.66385 11.2437C9.75424 11.1303 9.73717 11.0113 9.58625 10.9416C8.65903 10.514 8.24779 9.46063 8.52674 8.50019C8.81615 7.50629 9.7364 6.92152 10.7936 7.03847C11.6537 7.13338 12.4001 7.84415 12.5507 8.71165C12.7089 9.6209 12.2628 10.5309 11.4644 10.9247C11.2828 11.0145 11.2525 11.1468 11.3973 11.2901C11.4716 11.3619 11.5604 11.4164 11.6576 11.45C11.9323 11.5437 12.2178 11.6075 12.4894 11.7091C13.2242 11.9848 13.6532 12.6085 13.6761 13.4067C13.6823 13.6363 13.6785 13.8659 13.6761 14.0954C13.6761 14.4613 13.5462 14.5932 13.183 14.594C12.291 14.5955 11.3987 14.5955 10.5061 14.594L10.5123 14.5944Z" fill="#2873B4"/>
<path d="M17.0357 10.783C17.0582 14.4003 14.126 17.4037 10.5257 17.3919C6.92547 17.38 4.01577 14.5023 4.00102 10.8035C3.98745 7.15628 6.88434 4.18283 10.4772 4.16393C14.0961 4.14267 17.0124 7.08697 17.0357 10.783ZM10.5087 5.02592C7.35145 5.03734 4.81496 7.61779 4.84445 10.8263C4.87432 14.042 7.43719 16.5472 10.5696 16.5263C13.6073 16.5058 16.2117 13.9845 16.195 10.7169C16.1752 7.59771 13.6023 5.0149 10.5087 5.02592Z" fill="#2873B4"/>
</svg>
