<svg width="36" height="24" viewBox="0 0 36 24" fill="none" xmlns="http://www.w3.org/2000/svg">
<path d="M35.0172 0.0339355V1.19507C35.0049 7.55277 35.0015 13.9106 35.0084 20.2683C35.0084 22.2836 33.2799 23.4395 31.8199 23.4314C27.0737 23.4055 22.3271 23.4216 17.5787 23.4216H17.4977L17.4987 23.4207H3.22229C1.87514 23.4207 0.721486 22.6475 0.248657 21.4294L0.163696 21.1794C0.079558 20.8815 0.0373893 20.573 0.0396729 20.2634L0.0338135 11.8816C0.0331066 9.08789 0.0338804 6.29427 0.0357666 3.50073V2.47437H0.0689697C1.08212 2.48143 3.12097 2.4778 4.1344 2.49194C4.2421 2.4933 4.30091 2.47619 4.33362 2.44312C4.36616 2.40995 4.38193 2.35105 4.37756 2.2439C4.3615 1.85883 4.37217 1.47097 4.3717 1.08765C4.3717 0.769468 4.37322 0.515859 4.37463 0.342529C4.37534 0.256035 4.37606 0.189365 4.37659 0.144287C4.37685 0.121724 4.37741 0.104042 4.37756 0.0925293V0.0427246H9.776C17.7999 0.0427245 26.9595 0.0399086 34.983 0.0339355H35.0172ZM6.70764 1.95581L6.27405 1.95288V19.8669C6.27405 20.403 6.24593 20.9351 6.026 21.4412C6.02223 21.4658 6.02328 21.4906 6.02502 21.5154H6.39709C14.8296 21.5154 23.2625 21.5186 31.6949 21.5261C32.5605 21.5259 33.115 20.8336 33.1129 20.0984C33.0922 14.1251 33.0898 8.15218 33.1071 2.18042C33.1071 2.06238 33.085 2.01126 33.0514 1.98608C33.0337 1.97289 33.0095 1.96401 32.9762 1.95874C32.9428 1.95344 32.9022 1.95288 32.8531 1.95288C24.1381 1.95665 15.423 1.95707 6.70764 1.95581ZM2.19983 4.3689C2.08259 4.36561 2.01968 4.381 1.98401 4.41577C1.94832 4.45078 1.93082 4.51456 1.93127 4.6355C1.93879 7.23373 1.93521 9.83079 1.93518 12.4275V16.5378C1.93518 17.7867 1.92969 19.0369 1.94006 20.2839L1.95178 20.4412C2.05451 21.2085 2.85181 21.7048 3.57678 21.4197C4.06934 21.2259 4.37124 20.7582 4.3717 20.1609C4.37359 18.5115 4.37359 16.8621 4.3717 15.2126C4.3717 11.6859 4.37386 8.15868 4.37952 4.63159C4.37952 4.524 4.36401 4.46572 4.33167 4.43237C4.30746 4.40753 4.26908 4.39179 4.20569 4.3855L4.1344 4.38257C3.49039 4.39153 2.84537 4.38777 2.19983 4.3689Z" fill="#2681C2" stroke="#2681C2" stroke-width="0.0669782"/>
<path d="M19.131 16.9995V18.9058H8.89563V16.9995H19.131Z" fill="#2681C2" stroke="#2681C2" stroke-width="0.0669782"/>
<path d="M30.4375 17.0046V18.9021H21.5557V17.0046H30.4375Z" fill="#2681C2" stroke="#2681C2" stroke-width="0.0669782"/>
<path d="M30.2794 8.72021C30.3269 8.72542 30.367 8.73627 30.3956 8.76416C30.4245 8.79235 30.4362 8.83238 30.4415 8.87939C30.4469 8.92647 30.4464 8.98834 30.4464 9.06689V10.6479H21.5529V8.73291L21.5841 8.73193C21.6763 8.72778 21.7735 8.71927 21.8624 8.71924L30.087 8.71533C30.1676 8.71533 30.2314 8.71499 30.2794 8.72021Z" fill="#2681C2" stroke="#2681C2" stroke-width="0.0669782"/>
<path d="M30.1198 12.8425C30.1946 12.8425 30.2535 12.8424 30.2985 12.8474C30.3432 12.8524 30.3816 12.8629 30.4088 12.8904C30.436 12.9179 30.4468 12.9565 30.4518 13.0017C30.4568 13.0472 30.4567 13.1073 30.4567 13.1833V14.7693H21.5524V12.8669L21.5836 12.866C21.6628 12.8623 21.735 12.8562 21.8043 12.8562L30.1188 12.8425H30.1198Z" fill="#2681C2" stroke="#2681C2" stroke-width="0.0669782"/>
<path d="M30.1082 4.56104C30.2233 4.56104 30.3157 4.57342 30.3757 4.62646C30.4373 4.68103 30.4557 4.76931 30.45 4.89404C30.4307 5.31742 30.4311 5.7411 30.45 6.16455C30.4554 6.28758 30.4388 6.37708 30.3787 6.43311C30.3196 6.48805 30.2274 6.5017 30.1101 6.50146C27.5341 6.49345 24.9577 6.49608 22.3816 6.49561H22.3806L21.5828 6.49463H21.5496V4.58252L21.5808 4.58154C21.6755 4.57649 21.77 4.56692 21.8601 4.56689C24.6093 4.56689 27.359 4.56669 30.1082 4.56104Z" fill="#2681C2" stroke="#2681C2" stroke-width="0.0669782"/>
<rect x="9.79548" y="5.24653" width="8.50623" height="8.84112" stroke="#2681C2" stroke-width="1.87539"/>
</svg>
