<svg width="17" height="17" viewBox="0 0 17 17" fill="none" xmlns="http://www.w3.org/2000/svg">
<path d="M15.8459 10.4427C15.8598 10.3892 15.8696 10.3346 15.8751 10.2796C15.8502 9.16595 15.9612 8.0437 15.7234 6.9425C15.1972 4.50282 13.821 2.70416 11.5707 1.60583C9.57977 0.634263 7.54049 0.598863 5.51125 1.45275C3.56477 2.27171 2.19568 3.69295 1.40064 5.65665C1.02751 6.57702 0.874431 7.53902 0.874431 8.52685C0.874431 9.07666 0.874431 9.62662 0.874431 10.1767C0.874431 10.2451 0.883521 10.314 0.891653 10.4279C1.29109 10.1667 1.71062 10.1638 2.13254 10.172C2.7482 10.1844 3.13711 10.5599 3.1395 11.1713C3.14556 12.4865 3.14556 13.8017 3.1395 15.1168C3.13711 15.6947 2.73959 16.0736 2.15837 16.097C1.5695 16.1195 1.01268 16.0454 0.550098 15.6344C0.211892 15.3345 0.0171972 14.9647 0.0171972 14.5064C0.0171972 12.3863 -0.0277693 10.2648 0.0277213 8.14416C0.0937361 5.63751 1.12797 3.55805 3.04718 1.94068C4.65832 0.591688 6.52874 -0.0689386 8.62877 0.00568679C10.9292 0.0874877 12.8829 0.979643 14.4649 2.66302C15.7359 4.01441 16.4463 5.6289 16.6902 7.45339C16.7279 7.76207 16.7454 8.07287 16.7428 8.38382C16.7467 10.393 16.7428 12.4021 16.7428 14.4113C16.7428 15.1054 16.4128 15.5947 15.8091 15.9009C15.3522 16.1324 14.8523 16.1578 14.3615 16.075C13.899 15.9975 13.611 15.6206 13.6091 15.1355C13.6027 13.804 13.6012 12.4729 13.6048 11.1421C13.6048 10.5881 13.9961 10.1997 14.55 10.1753C14.9911 10.1538 15.4269 10.1643 15.8459 10.4427Z" fill="#808080"/>
<path d="M4.61035 16.0676C4.65292 15.3501 4.69071 14.6804 4.73233 14.0149C4.76677 13.4663 4.83088 12.918 4.82801 12.3694C4.82801 12.0991 4.69741 11.8317 4.65101 11.5585C4.28889 9.41974 5.73499 7.46704 7.88717 7.1805C8.87374 7.04477 9.87437 7.29896 10.6766 7.8891C11.4787 8.47923 12.0193 9.35882 12.1834 10.3411C12.4508 11.9197 11.5012 13.6145 10.0106 14.2489C9.07448 14.6478 8.13018 14.677 7.16148 14.3924C7.06964 14.3656 6.929 14.4062 6.84576 14.4651C6.17605 14.9382 5.51446 15.4218 4.85001 15.9035C4.7883 15.9499 4.72229 15.9916 4.61035 16.0676ZM6.71517 9.83831C6.95052 9.86941 7.17153 9.89237 7.38967 9.92968C7.54131 9.95551 7.62215 9.93303 7.64607 9.75364C7.68195 9.48384 7.79532 9.25231 8.07182 9.13559C8.3928 8.99973 8.81951 9.1045 8.99602 9.3719C9.16058 9.62113 9.07639 9.96221 8.78698 10.2157C8.70326 10.2889 8.61476 10.3593 8.53392 10.4339C8.24164 10.7109 7.96897 10.9988 7.95127 11.4385C7.92926 11.9895 7.92974 11.8747 8.3818 11.8857C8.45355 11.8857 8.52531 11.8781 8.59707 11.8857C8.75253 11.902 8.83625 11.857 8.83147 11.6805C8.82525 11.3787 8.9788 11.1543 9.20698 10.9697C9.39012 10.8293 9.56338 10.6765 9.72553 10.5123C9.8491 10.384 9.94337 10.2304 10.0019 10.0621C10.0604 9.8938 10.0817 9.71483 10.0643 9.53751C10.047 9.3602 9.99147 9.18874 9.90152 9.03496C9.81156 8.88117 9.68934 8.74871 9.54328 8.6467C8.99459 8.253 8.3751 8.24104 7.75801 8.41182C7.09403 8.59599 6.70321 9.15425 6.71517 9.83831ZM8.38945 12.2187C8.32007 12.2176 8.25118 12.2305 8.18687 12.2566C8.12256 12.2827 8.06414 12.3214 8.01507 12.3705C7.966 12.4196 7.92728 12.478 7.9012 12.5423C7.87512 12.6066 7.86222 12.6755 7.86325 12.7449C7.86166 12.8156 7.87428 12.886 7.90037 12.9518C7.92646 13.0176 7.96549 13.0775 8.01515 13.1279C8.0648 13.1784 8.12408 13.2184 8.18946 13.2455C8.25484 13.2726 8.325 13.2863 8.39578 13.2858C8.46656 13.2854 8.53653 13.2707 8.60153 13.2427C8.66654 13.2147 8.72527 13.1739 8.77423 13.1228C8.8232 13.0717 8.86141 13.0113 8.88661 12.9451C8.91181 12.879 8.92347 12.8084 8.92092 12.7377C8.91566 12.4306 8.69752 12.2148 8.38945 12.2187Z" fill="#808080"/>
</svg>
