<?xml version="1.0" encoding="UTF-8"?>
<svg xmlns="http://www.w3.org/2000/svg" width="60" height="60" viewBox="0 0 60 60">
  <defs><filter id="thin20" x="-10%" y="-10%" width="120%" height="120%"><feMorphology operator="erode" radius="0.18"/></filter></defs>
  <path filter="url(#thin20)" d="M 30.762 30.527 L 30.938 30.059  L 31.289 29.707  L 31.934 29.473  L 32.402 29.473  L 32.930 29.648  L 33.281 29.883  L 33.574 30.176  L 33.809 30.586  L 34.160 30.938  L 34.629 31.113  L 34.980 31.113  L 35.391 30.996  L 35.859 30.527  L 36.094 30.117  L 36.680 29.648  L 37.207 29.473  L 37.617 29.473  L 38.203 29.648  L 38.672 30.059  L 38.848 30.469  L 38.848 31.055  L 38.672 31.641  L 38.438 32.109  L 37.910 32.871  L 36.445 34.395  L 34.805 35.801  L 33.223 34.453  L 31.641 32.812  L 31.055 31.934  L 30.879 31.523  L 30.762 31.055 Z M 30.352 27.539 L 29.824 27.832  L 29.004 28.652  L 28.535 29.590  L 28.477 30.117  L 28.418 30.176  L 28.418 31.348  L 28.711 32.461  L 29.180 33.398  L 29.648 34.102  L 30.234 34.805  L 31.523 36.094  L 32.871 37.266  L 34.160 38.262  L 34.688 38.438  L 35.215 38.379  L 35.801 38.027  L 38.027 36.152  L 39.434 34.746  L 40.254 33.691  L 40.898 32.461  L 41.191 31.348  L 41.191 30.234  L 40.957 29.355  L 40.488 28.535  L 39.902 27.949  L 38.965 27.422  L 38.086 27.188  L 36.797 27.188  L 36.094 27.363  L 35.508 27.598  L 34.805 28.125  L 34.395 27.773  L 33.691 27.422  L 32.754 27.188  L 31.582 27.188 Z M 18.516 21.035 L 18.984 21.035  L 19.395 21.211  L 19.746 21.621  L 19.863 22.031  L 19.863 22.207  L 19.453 22.500  L 18.809 23.203  L 18.516 23.730  L 18.340 24.258  L 18.340 24.492  L 18.281 24.551  L 18.281 25.605  L 18.340 25.664  L 18.340 25.957  L 18.633 26.660  L 21.211 30.293  L 21.562 30.879  L 22.031 31.465  L 22.500 32.227  L 22.969 32.812  L 27.012 38.730  L 27.832 39.727  L 28.711 40.547  L 28.066 40.840  L 27.539 41.250  L 25.430 44.824  L 24.844 44.531  L 24.375 44.180  L 23.027 43.418  L 22.734 43.184  L 21.973 42.773  L 21.680 42.539  L 20.625 41.953  L 19.863 41.426  L 16.172 39.199  L 17.812 36.445  L 18.105 35.801  L 18.105 34.980  L 18.047 34.922  L 18.047 34.570  L 17.988 34.512  L 17.988 34.219  L 17.812 33.457  L 17.812 33.105  L 17.695 32.637  L 17.695 32.109  L 17.637 32.051  L 17.637 31.406  L 17.578 31.348  L 17.695 22.559  L 17.754 22.500  L 17.754 21.855  L 17.871 21.562  L 18.281 21.152 Z M 38.555 17.695 L 39.023 18.047  L 39.141 18.281  L 39.199 18.750  L 38.965 19.277  L 37.969 20.801  L 37.793 20.625  L 37.559 20.156  L 36.855 19.102  L 37.441 18.164  L 37.793 17.812  L 38.027 17.695 Z M 35.859 14.238 L 36.094 14.355  L 36.387 14.648  L 36.504 14.883  L 36.562 15.234  L 36.445 15.586  L 35.508 16.875  L 34.453 15.234  L 34.863 14.590  L 35.098 14.355  L 35.332 14.238 Z M 25.312 14.648 L 25.547 14.648  L 25.605 14.590  L 25.664 14.648  L 25.957 14.648  L 26.367 14.941  L 30.234 21.035  L 32.285 24.434  L 32.812 24.961  L 33.457 25.078  L 33.867 24.961  L 34.160 24.785  L 34.336 24.609  L 34.512 24.258  L 34.512 23.496  L 29.297 15.059  L 29.297 14.707  L 29.473 14.297  L 29.707 14.062  L 30.059 13.887  L 30.645 13.945  L 31.172 14.414  L 31.992 15.820  L 32.578 16.641  L 34.922 20.508  L 35.273 20.977  L 35.508 21.445  L 37.910 25.195  L 38.320 25.957  L 38.672 26.484  L 39.082 26.895  L 39.551 27.070  L 40.430 27.012  L 40.781 26.836  L 41.074 26.543  L 41.309 26.133  L 41.367 24.961  L 41.426 24.902  L 41.543 21.855  L 41.719 21.328  L 42.188 20.918  L 42.891 20.859  L 43.184 21.035  L 43.477 21.328  L 43.652 21.797  L 43.652 22.852  L 43.711 22.910  L 43.770 25.781  L 43.828 25.840  L 43.945 30.469  L 44.004 30.527  L 44.004 31.582  L 43.945 31.641  L 43.887 32.871  L 43.828 32.930  L 43.711 34.395  L 43.652 34.453  L 43.652 35.508  L 45.703 39.023  L 44.590 39.785  L 36.621 44.766  L 36.387 44.590  L 36.270 44.297  L 35.449 43.008  L 34.570 41.426  L 34.102 40.898  L 32.930 40.430  L 32.520 40.195  L 32.402 40.195  L 31.348 39.609  L 30.117 38.672  L 29.121 37.617  L 20.684 25.430  L 20.625 24.902  L 20.801 24.492  L 20.977 24.316  L 21.270 24.141  L 21.504 24.141  L 21.562 24.082  L 22.031 24.199  L 22.441 24.609  L 24.082 27.129  L 24.609 27.832  L 24.668 28.008  L 24.844 28.184  L 25.430 29.180  L 25.957 29.824  L 26.133 29.941  L 26.719 30.059  L 27.305 29.883  L 27.715 29.473  L 27.832 29.238  L 27.832 28.535  L 27.598 28.066  L 21.914 19.512  L 21.855 18.867  L 21.973 18.574  L 22.266 18.281  L 22.500 18.164  L 23.086 18.164  L 23.320 18.281  L 23.672 18.633  L 23.730 18.809  L 24.434 19.805  L 24.902 20.625  L 25.078 20.801  L 25.137 20.977  L 25.840 21.973  L 25.898 22.148  L 26.484 22.969  L 26.543 23.145  L 28.711 26.484  L 28.945 26.719  L 29.180 26.836  L 29.883 26.895  L 30.410 26.660  L 30.762 26.191  L 30.820 25.488  L 30.586 24.961  L 24.727 15.996  L 24.668 15.820  L 24.727 15.234  L 24.844 15.000 Z M 24.375 12.480 L 23.906 12.715  L 23.438 13.066  L 23.027 13.477  L 22.793 13.828  L 22.383 14.766  L 22.324 15.762  L 22.148 15.879  L 21.562 15.996  L 21.094 16.230  L 20.684 16.523  L 20.273 16.934  L 19.688 17.871  L 19.453 18.750  L 19.277 18.691  L 18.340 18.691  L 17.461 18.926  L 16.992 19.160  L 16.582 19.453  L 16.113 19.922  L 15.586 20.859  L 15.410 21.504  L 15.234 31.523  L 15.293 31.582  L 15.293 32.285  L 15.352 32.344  L 15.410 33.281  L 15.469 33.340  L 15.527 34.043  L 15.586 34.102  L 15.586 34.395  L 15.645 34.453  L 15.645 34.746  L 15.762 35.215  L 13.477 39.141  L 13.418 39.316  L 13.477 40.020  L 13.594 40.254  L 14.004 40.664  L 16.875 42.363  L 17.168 42.598  L 18.691 43.477  L 20.508 44.648  L 20.801 44.766  L 22.031 45.586  L 22.793 45.996  L 25.312 47.578  L 26.074 47.637  L 26.543 47.461  L 26.836 47.168  L 27.188 46.465  L 27.832 45.469  L 29.238 43.008  L 29.414 42.832  L 30.527 42.305  L 30.879 42.070  L 30.996 42.070  L 32.051 42.598  L 32.461 42.715  L 32.695 42.891  L 33.516 44.355  L 34.805 46.406  L 34.922 46.699  L 35.156 47.051  L 35.566 47.461  L 35.977 47.578  L 36.328 47.578  L 36.738 47.461  L 47.812 40.547  L 48.281 40.137  L 48.457 39.785  L 48.457 39.082  L 48.340 38.789  L 45.996 34.922  L 46.113 33.633  L 46.172 33.574  L 46.172 33.047  L 46.230 32.988  L 46.230 32.520  L 46.289 32.461  L 46.348 30.703  L 46.289 30.645  L 46.289 29.004  L 46.230 28.945  L 46.230 27.598  L 46.172 27.539  L 45.996 21.562  L 45.762 20.566  L 45.176 19.629  L 44.590 19.102  L 43.945 18.750  L 43.066 18.516  L 42.129 18.516  L 42.070 18.574  L 41.602 18.633  L 41.543 18.574  L 41.484 17.812  L 41.250 17.168  L 41.016 16.758  L 40.312 15.996  L 39.492 15.527  L 39.082 15.469  L 38.906 15.352  L 38.848 14.414  L 38.730 14.004  L 38.438 13.418  L 37.910 12.773  L 37.383 12.363  L 36.914 12.129  L 36.094 11.895  L 35.039 11.895  L 33.984 12.246  L 33.633 12.480  L 33.105 13.008  L 32.344 12.188  L 31.758 11.836  L 30.762 11.543  L 29.824 11.543  L 28.945 11.777  L 28.477 12.012  L 27.598 12.832  L 27.480 12.832  L 26.895 12.480  L 25.898 12.246  L 25.371 12.246 Z M 28.125 2.168 L 31.875 2.168  L 31.934 2.227  L 32.578 2.227  L 32.637 2.285  L 33.633 2.344  L 33.691 2.402  L 34.453 2.461  L 34.512 2.520  L 35.098 2.578  L 36.270 2.871  L 36.504 2.871  L 39.609 3.809  L 41.074 4.395  L 41.602 4.688  L 41.719 4.688  L 43.770 5.742  L 45.645 6.914  L 46.934 7.852  L 48.223 8.906  L 50.684 11.309  L 51.445 12.188  L 52.793 13.945  L 54.434 16.582  L 55.547 18.867  L 56.484 21.387  L 56.484 21.562  L 56.953 23.027  L 57.188 24.316  L 57.305 24.609  L 57.480 26.016  L 57.539 26.074  L 57.539 26.484  L 57.598 26.543  L 57.656 27.656  L 57.715 27.715  L 57.773 31.055  L 57.715 31.113  L 57.715 31.934  L 57.656 31.992  L 57.656 32.637  L 57.598 32.695  L 57.539 33.574  L 57.480 33.633  L 57.422 34.336  L 57.363 34.395  L 57.129 35.801  L 56.309 38.672  L 55.371 41.016  L 53.906 43.828  L 52.441 46.055  L 50.801 48.105  L 48.809 50.156  L 47.168 51.562  L 44.590 53.379  L 41.953 54.844  L 41.836 54.844  L 41.074 55.254  L 39.316 55.957  L 36.445 56.836  L 36.211 56.836  L 35.391 57.070  L 34.043 57.246  L 33.984 57.305  L 32.578 57.422  L 32.520 57.480  L 31.816 57.480  L 31.758 57.539  L 28.242 57.539  L 28.184 57.480  L 26.426 57.363  L 26.367 57.305  L 26.016 57.305  L 25.957 57.246  L 25.664 57.246  L 25.605 57.188  L 25.312 57.188  L 25.254 57.129  L 24.961 57.129  L 24.902 57.070  L 23.789 56.895  L 22.441 56.484  L 22.266 56.484  L 22.031 56.367  L 21.855 56.367  L 19.160 55.371  L 16.875 54.258  L 15.176 53.262  L 14.121 52.559  L 12.070 50.977  L 10.957 49.980  L 9.727 48.750  L 8.496 47.344  L 7.207 45.645  L 6.211 44.121  L 5.508 42.891  L 4.219 40.195  L 3.223 37.383  L 2.578 34.629  L 2.461 33.574  L 2.402 33.516  L 2.402 33.105  L 2.344 33.047  L 2.344 32.637  L 2.285 32.578  L 2.285 31.934  L 2.227 31.875  L 2.168 28.770  L 2.227 28.711  L 2.227 27.832  L 2.285 27.773  L 2.344 26.543  L 2.402 26.484  L 2.461 25.664  L 2.520 25.605  L 2.520 25.312  L 2.578 25.254  L 2.578 24.961  L 2.637 24.902  L 2.812 23.789  L 3.105 22.617  L 3.223 22.383  L 3.281 21.973  L 3.574 21.211  L 3.574 21.035  L 3.691 20.859  L 3.691 20.684  L 3.809 20.508  L 3.926 20.039  L 4.453 18.867  L 4.453 18.750  L 5.918 15.879  L 7.500 13.477  L 8.906 11.719  L 11.191 9.375  L 13.477 7.500  L 14.648 6.680  L 16.172 5.742  L 18.457 4.570  L 18.574 4.570  L 18.984 4.336  L 20.156 3.867  L 21.914 3.281  L 22.090 3.281  L 23.438 2.871  L 23.672 2.871  L 23.965 2.754  L 24.199 2.754  L 25.137 2.520  L 25.430 2.520  L 25.488 2.461  L 26.719 2.344  L 26.777 2.285  L 27.305 2.285  L 27.363 2.227  L 28.066 2.227 Z M 27.422 0.000 L 27.305 0.117  L 26.250 0.176  L 26.191 0.234  L 24.727 0.410  L 24.668 0.469  L 23.262 0.703  L 22.090 0.996  L 21.855 1.113  L 21.680 1.113  L 21.445 1.230  L 21.270 1.230  L 18.926 2.051  L 17.285 2.812  L 17.168 2.812  L 15.879 3.457  L 14.062 4.512  L 12.656 5.449  L 10.957 6.738  L 9.551 7.969  L 7.852 9.668  L 7.031 10.605  L 5.156 13.066  L 3.750 15.352  L 2.461 17.930  L 1.406 20.684  L 1.406 20.859  L 0.879 22.500  L 0.586 24.082  L 0.469 24.375  L 0.293 25.781  L 0.234 25.840  L 0.176 26.719  L 0.117 26.777  L 0.117 27.363  L 0.000 27.480  L 0.000 32.520  L 0.117 32.637  L 0.117 33.164  L 0.176 33.223  L 0.176 33.633  L 0.234 33.691  L 0.234 34.102  L 0.352 34.512  L 0.469 35.566  L 1.055 38.086  L 1.992 40.898  L 2.754 42.539  L 2.754 42.656  L 3.457 44.062  L 4.805 46.348  L 6.738 48.984  L 7.969 50.391  L 9.609 52.031  L 10.547 52.852  L 12.832 54.609  L 15.352 56.191  L 17.930 57.480  L 18.047 57.480  L 19.512 58.125  L 20.156 58.301  L 20.332 58.418  L 20.508 58.418  L 20.684 58.535  L 20.859 58.535  L 21.855 58.887  L 23.496 59.297  L 23.730 59.297  L 24.668 59.531  L 24.961 59.531  L 25.020 59.590  L 25.312 59.590  L 25.371 59.648  L 25.723 59.648  L 25.781 59.707  L 27.246 59.824  L 27.363 59.941  L 32.637 59.941  L 32.754 59.824  L 34.219 59.707  L 34.277 59.648  L 35.273 59.531  L 35.625 59.414  L 35.918 59.414  L 36.211 59.297  L 36.738 59.238  L 37.676 59.004  L 37.910 58.887  L 38.320 58.828  L 39.434 58.418  L 39.609 58.418  L 39.785 58.301  L 40.254 58.184  L 40.430 58.066  L 41.602 57.656  L 43.945 56.543  L 46.699 54.902  L 48.398 53.672  L 50.215 52.148  L 52.617 49.688  L 54.375 47.461  L 56.074 44.824  L 57.539 41.895  L 58.535 39.258  L 58.535 39.082  L 58.945 37.852  L 59.238 36.680  L 59.238 36.445  L 59.355 36.152  L 59.531 34.980  L 59.590 34.922  L 59.590 34.629  L 59.648 34.570  L 59.648 34.219  L 59.707 34.160  L 59.824 32.695  L 59.941 32.578  L 59.941 27.363  L 59.824 27.246  L 59.707 25.781  L 59.648 25.723  L 59.648 25.371  L 59.590 25.312  L 59.590 25.020  L 59.531 24.961  L 59.355 23.789  L 58.652 21.035  L 57.656 18.340  L 56.484 15.879  L 55.371 13.945  L 54.082 12.070  L 53.262 11.016  L 52.207 9.785  L 49.629 7.266  L 47.051 5.273  L 44.590 3.750  L 42.773 2.812  L 42.656 2.812  L 41.191 2.109  L 38.672 1.230  L 38.496 1.230  L 38.086 1.055  L 36.445 0.645  L 35.273 0.469  L 34.922 0.352  L 34.219 0.293  L 34.160 0.234  L 33.750 0.234  L 33.691 0.176  L 33.281 0.176  L 33.223 0.117  L 32.637 0.117  L 32.520 0.000 Z" fill="#1972AE" fill-rule="evenodd" clip-rule="evenodd"/>
</svg>
