<svg width="28" height="23" viewBox="0 0 28 23" fill="none" xmlns="http://www.w3.org/2000/svg">
<path d="M13.9157 0.00227294C17.694 0.00227294 21.4724 0.00227294 25.251 0.00227294C26.4201 0.00227294 27.3239 0.634307 27.6678 1.70436C27.7453 1.94138 27.786 2.18884 27.7887 2.43818C27.796 7.52718 27.7978 12.6162 27.7941 17.7052C27.7941 19.1492 26.7432 20.1947 25.2951 20.1979C23.304 20.202 21.3125 20.1979 19.3209 20.1979C18.992 20.1979 18.9933 20.1979 18.9929 20.5187C18.9929 21.0335 18.9929 21.5487 18.9893 22.0635C18.9856 22.4761 18.8016 22.657 18.3904 22.6574L9.57551 22.6656C9.4919 22.6656 9.40875 22.6656 9.3256 22.6592C8.98118 22.6402 8.81215 22.4748 8.80715 22.1303C8.79943 21.5928 8.79898 21.0553 8.8017 20.5178C8.8017 20.1965 8.80897 20.1961 8.47773 20.1965C6.49348 20.1965 4.50967 20.2029 2.52542 20.1992C1.52852 20.1992 0.753355 19.7862 0.276716 18.8934C0.0667944 18.5008 0 18.0682 0 17.6211C0.003635 12.6009 0.00621179 7.58064 0.00772638 2.5604C0.0029076 2.27316 0.0393259 1.98671 0.115868 1.70982C0.428478 0.672931 1.39221 -0.000454145 2.50906 2.29803e-07C6.31036 2.29803e-07 10.112 2.29803e-07 13.9139 2.29803e-07L13.9157 0.00227294ZM13.9157 2.4559H3.26242C2.6381 2.4559 2.44454 2.64628 2.44454 3.26287C2.44454 5.76163 2.44333 8.26069 2.4409 10.7601C2.4409 12.8426 2.44181 14.9249 2.44363 17.0068C2.44363 17.5066 2.68263 17.7474 3.17654 17.752C3.57775 17.7561 3.97896 17.752 4.38018 17.752C11.1049 17.752 17.8285 17.752 24.5508 17.752C25.1174 17.752 25.346 17.5166 25.346 16.95C25.346 13.4141 25.346 9.87827 25.346 6.34262C25.346 5.26757 25.35 4.19207 25.3496 3.11656C25.3496 2.76805 25.1624 2.51815 24.8639 2.47317C24.7359 2.45905 24.6072 2.4545 24.4786 2.45953L13.9157 2.4559Z" fill="#2681C2"/>
<path d="M10.0695 10.0802C10.0695 8.67168 10.084 7.26312 10.0618 5.85456C10.0536 5.33839 10.4076 5.173 10.8342 5.42381C12.6385 6.48977 14.456 7.53529 16.2735 8.58444C16.9156 8.95612 17.5635 9.3169 18.2074 9.68539C18.3723 9.77945 18.5427 9.8726 18.5327 10.1071C18.5236 10.3306 18.3709 10.4288 18.2006 10.5269C16.5748 11.4659 14.9504 12.4063 13.3274 13.3481C12.4891 13.8334 11.6516 14.3205 10.8101 14.8021C10.3803 15.0475 10.0804 14.8698 10.0804 14.3755C10.0804 12.9442 10.0804 11.5129 10.0804 10.0816L10.0695 10.0802Z" fill="#2681C2"/>
</svg>
