<svg width="40" height="40" viewBox="0 0 40 40" fill="none" xmlns="http://www.w3.org/2000/svg">
<g clip-path="url(#clip0_192_591)">
<path d="M19.7574 39.4679C8.7724 39.4488 -8.30293e-05 30.6581 0.0254462 19.6839C0.048848 8.5301 9.0362 -0.00369682 19.7739 0.0159028C30.7382 0.0360322 39.4777 8.87123 39.4729 19.7183C39.4639 30.7651 30.5169 39.4605 19.7574 39.4679ZM1.67434 19.7586C1.64774 29.7438 9.46068 37.7431 19.591 37.8427C29.8234 37.9439 37.7777 29.7131 37.8426 19.7586C37.9069 9.83109 30.0844 1.73697 19.9259 1.67446C9.80781 1.61301 1.62753 9.57629 1.67434 19.7586Z" fill="#1972AE"/>
<path d="M14.1744 21.8325C13.4494 22.0407 12.7788 22.234 12.107 22.4253C11.2385 22.6727 10.5024 23.1245 9.94343 23.8375C9.39402 24.5394 9.07118 25.3276 9.08395 26.2313C9.08926 26.5778 9.16213 26.7081 9.50518 26.7732C9.97321 26.8596 10.4519 26.9348 10.9258 26.9364C14.6132 26.9491 18.3005 26.9427 21.9884 26.9417C22.0741 26.9417 22.1592 26.9337 22.2741 26.9279C22.0288 26.1708 21.957 25.3686 22.064 24.5802C22.1661 23.7957 22.4767 23.0906 22.9415 22.3697L20.8487 21.8182C21.1173 21.475 21.3465 21.1762 21.5848 20.8854C21.6077 20.8682 21.6343 20.8564 21.6625 20.8509C21.6907 20.8454 21.7197 20.8463 21.7475 20.8536C22.3677 21.031 22.9889 21.2048 23.6021 21.4045C23.7452 21.4511 23.8329 21.4575 23.9553 21.3658C24.7923 20.7103 25.8231 20.3479 26.8879 20.335C29.6722 20.2857 31.956 22.6128 31.88 25.414C31.7816 29.0208 28.1463 31.2938 24.8445 29.7969C24.118 29.4679 23.4936 28.9859 23.0437 28.3136C22.9325 28.1473 22.799 28.1208 22.6182 28.1208C18.7622 28.1261 14.9062 28.1357 11.0508 28.1208C10.4274 28.1176 9.80249 28.0059 9.18287 27.9137C8.98023 27.8835 8.77866 27.7776 8.60049 27.6674C8.18723 27.4126 7.9346 27.0519 7.90588 26.547C7.80802 24.8392 8.49996 23.4799 9.75568 22.3723C10.755 21.4908 11.9991 21.164 13.2558 20.8753C13.2887 20.8688 13.3226 20.8696 13.3551 20.8777C13.3876 20.8859 13.4178 20.9012 13.4436 20.9225C13.6867 21.2101 13.917 21.5083 14.1744 21.8325ZM26.9698 21.2885C24.7717 21.2768 22.9628 23.0689 22.9543 25.2667C22.9453 27.483 24.7296 29.3238 26.8948 29.3312C29.1037 29.3392 30.92 27.545 30.937 25.3366C30.9583 23.1171 29.1776 21.3012 26.9698 21.2885Z" fill="#1972AE"/>
<path d="M22.7794 16.3551C22.7709 17.4596 22.2768 19.1166 21.054 20.4954C19.4053 22.3569 16.9215 22.7054 14.9153 21.3631C13.6713 20.5309 12.9118 19.329 12.5049 17.9167C11.9342 15.9329 12.0454 13.9783 12.9772 12.119C13.7984 10.4848 15.0573 9.35117 16.9417 9.09955C18.3022 8.91627 19.5074 9.34428 20.5206 10.2464C22.0316 11.5882 22.7826 13.429 22.7794 16.3551ZM21.6024 15.6204C21.5816 13.8676 21.0806 12.3266 19.7515 11.1231C19.1499 10.569 18.3658 10.2532 17.5466 10.2349C16.7275 10.2167 15.9299 10.4973 15.3041 11.024C14.3467 11.8213 13.7894 12.8531 13.5373 14.0524C13.0995 16.1316 13.4043 18.0576 14.8217 19.7167C16.2274 21.362 18.5149 21.4219 20.0153 19.8635C21.1599 18.6774 21.5859 17.2186 21.6024 15.6204Z" fill="#1972AE"/>
<path d="M26.1368 27.8039C26.0889 27.6259 26.1198 27.539 26.2964 27.5311C26.4533 27.5252 26.5272 27.4304 26.5267 27.2662C26.5219 26.4992 26.5176 25.73 26.5229 24.9651C26.5229 24.6292 26.2746 24.6886 26.0576 24.6658C26.0501 24.5826 26.0432 24.5069 26.0374 24.4438C26.065 24.4195 26.0767 24.3988 26.0905 24.3978C26.5485 24.3607 27.0069 24.33 27.4643 24.2881C27.6462 24.2712 27.6409 24.3813 27.6409 24.5026C27.6409 25.3756 27.6409 26.2507 27.6367 27.1211C27.6367 27.3329 27.6574 27.5046 27.9239 27.5448C27.977 27.5522 28.0074 27.6884 28.0691 27.8039H26.1368Z" fill="#1972AE"/>
<path d="M27.0363 22.4618C27.1205 22.4622 27.2037 22.4795 27.2811 22.5126C27.3584 22.5456 27.4283 22.5938 27.4867 22.6543C27.545 22.7147 27.5905 22.7862 27.6206 22.8645C27.6507 22.9428 27.6647 23.0264 27.6618 23.1102C27.6632 23.1918 27.6479 23.2729 27.617 23.3485C27.5861 23.4241 27.5402 23.4927 27.4819 23.5502C27.4237 23.6077 27.3544 23.6528 27.2781 23.6829C27.2019 23.7129 27.1204 23.7273 27.0384 23.7252C26.9541 23.7282 26.87 23.7141 26.7913 23.6837C26.7126 23.6533 26.641 23.6072 26.5808 23.5483C26.5205 23.4895 26.473 23.419 26.441 23.3412C26.4091 23.2634 26.3934 23.1799 26.3949 23.0959C26.3939 23.0119 26.4099 22.9287 26.4419 22.851C26.4738 22.7733 26.5211 22.7028 26.5809 22.6437C26.6408 22.5846 26.7119 22.538 26.7901 22.5068C26.8683 22.4755 26.952 22.4602 27.0363 22.4618Z" fill="#1972AE"/>
</g>
<defs>
<clipPath id="clip0_192_591">
<rect width="39.5171" height="39.5171" fill="white"/>
</clipPath>
</defs>
</svg>
